<svg width="583" height="439" viewBox="0 0 583 439" fill="none" xmlns="http://www.w3.org/2000/svg">
<g clip-path="url(#clip0_15:112)">
<path opacity="0.18" d="M108.224 426.949C88.1508 423.652 69.2553 415.279 53.3358 402.626C34.5601 387.884 14.1613 368.02 14.7884 343.365C15.4524 317.199 25.2276 292.028 36.0356 268.478C50.3111 236.674 70.2303 203.137 64.9554 167.721C59.7543 132.857 66.7629 89.9228 85.428 59.924C114.938 12.6777 166.58 1.2162 218.223 0.110589C252.344 -0.589629 287.461 1.43732 318.557 15.4785C351.239 30.22 377.393 57.4548 410.776 70.1324C432.908 78.4613 457.106 80.1197 478.759 89.4805C506.019 101.311 527.045 124.749 540.694 151.137C554.342 177.524 561.203 206.822 566.33 235.9C574.962 285.099 554.453 346.461 524.906 386.742C505.097 413.645 472.12 444.639 438.109 438.005C265.697 405.132 298.859 457.685 108.224 426.949Z" fill="#4385F5"/>
<path opacity="0.31" d="M519.668 170.89C519.668 175.536 517.823 179.993 514.538 183.281C511.253 186.57 506.796 188.423 502.146 188.432H457.033C452.376 188.432 447.91 186.584 444.617 183.294C441.324 180.004 439.474 175.543 439.474 170.89C439.474 166.237 441.324 161.776 444.617 158.486C447.91 155.196 452.376 153.348 457.033 153.348H463.525C463.488 152.869 463.488 152.389 463.525 151.91C463.489 149.795 463.869 147.694 464.646 145.726C465.423 143.758 466.579 141.963 468.051 140.441C469.522 138.92 471.278 137.704 473.22 136.861C475.162 136.018 477.251 135.565 479.368 135.529C481.485 135.493 483.588 135.873 485.558 136.649C487.528 137.425 489.325 138.581 490.848 140.051C492.37 141.52 493.588 143.275 494.432 145.216C495.275 147.156 495.728 149.243 495.765 151.358V151.91C495.765 152.389 495.765 152.869 495.765 153.348H502.22C506.877 153.348 511.343 155.196 514.636 158.486C517.928 161.776 519.778 166.237 519.778 170.89H519.668Z" fill="#4385F5"/>
<path d="M514.208 169.232C514.208 173.878 512.363 178.334 509.079 181.623C505.794 184.912 501.337 186.764 496.687 186.774H451.61C449.304 186.774 447.021 186.32 444.891 185.439C442.761 184.557 440.825 183.265 439.195 181.636C437.564 180.007 436.271 178.073 435.388 175.945C434.506 173.817 434.052 171.535 434.052 169.232C434.052 166.928 434.506 164.647 435.388 162.519C436.271 160.39 437.564 158.456 439.195 156.827C440.825 155.198 442.761 153.906 444.891 153.025C447.021 152.143 449.304 151.689 451.61 151.689H458.066C458.066 151.21 458.066 150.731 458.066 150.289C457.961 148.107 458.301 145.926 459.065 143.879C459.829 141.832 461.001 139.961 462.51 138.38C464.018 136.798 465.833 135.54 467.843 134.68C469.853 133.819 472.017 133.376 474.204 133.376C476.391 133.376 478.554 133.819 480.565 134.68C482.575 135.54 484.389 136.798 485.898 138.38C487.407 139.961 488.579 141.832 489.343 143.879C490.107 145.926 490.447 148.107 490.342 150.289C490.342 150.768 490.342 151.247 490.342 151.726H496.797C501.425 151.755 505.854 153.613 509.116 156.892C512.378 160.172 514.208 164.608 514.208 169.232Z" fill="white"/>
<path d="M96.7524 210.545C96.7342 209.862 96.8557 209.183 97.1095 208.55C97.3632 207.916 97.7438 207.341 98.2279 206.859C100.441 204.594 102.04 201.804 102.876 198.751C103.357 196.805 103.218 194.757 102.477 192.894C101.736 191.03 100.431 189.445 98.7443 188.359C96.743 186.815 94.4453 185.698 91.9939 185.079C90.7961 184.714 89.7672 183.935 89.0914 182.882C88.4156 181.829 88.1369 180.569 88.3052 179.33C88.4896 177.708 88.6741 176.086 88.8216 174.465C88.9441 173.008 89.6358 171.657 90.7472 170.705C91.8586 169.754 93.3003 169.277 94.7605 169.379C97.1021 169.308 99.4074 168.783 101.548 167.831C103.959 166.917 105.922 165.105 107.023 162.775C108.123 160.444 108.277 157.779 107.45 155.338C106.811 153.262 106.035 151.23 105.126 149.257C104.604 148.128 104.484 146.855 104.786 145.648C105.088 144.442 105.794 143.374 106.786 142.623C108.003 141.628 109.294 140.781 110.475 139.749C111.541 138.929 112.858 138.504 114.203 138.544C115.548 138.584 116.837 139.088 117.852 139.97C119.616 141.708 121.694 143.096 123.975 144.061C126.096 145.035 128.489 145.241 130.745 144.642C133 144.043 134.976 142.678 136.333 140.781C137.881 138.622 139.053 136.217 139.8 133.668C140.176 132.44 140.985 131.389 142.077 130.712C143.169 130.034 144.47 129.775 145.739 129.983C147.362 130.241 148.948 130.462 150.571 130.646C151.84 130.791 153.011 131.396 153.861 132.348C154.711 133.299 155.181 134.53 155.182 135.805C155.298 138.881 156.105 141.891 157.543 144.613C158.617 146.385 160.204 147.789 162.095 148.638C163.986 149.487 166.091 149.742 168.13 149.368C170.445 148.904 172.681 148.11 174.769 147.009C176.002 146.316 177.453 146.121 178.825 146.463C180.197 146.806 181.386 147.661 182.147 148.852C183.069 150.252 184.286 151.468 185.209 152.869C185.9 153.847 186.223 155.038 186.122 156.231C186.021 157.424 185.501 158.544 184.655 159.392C182.85 161.264 181.423 163.467 180.45 165.878C179.42 168.241 179.343 170.91 180.237 173.328C181.131 175.745 182.925 177.724 185.246 178.85C187.015 179.848 188.881 180.663 190.816 181.283C191.923 181.637 192.884 182.344 193.55 183.296C194.216 184.248 194.552 185.392 194.504 186.553C194.504 188.506 194.135 190.459 193.84 192.376C193.685 193.646 193.063 194.813 192.095 195.65C191.127 196.488 189.883 196.936 188.602 196.909C185.744 196.965 182.933 197.657 180.376 198.936C178.46 199.877 176.908 201.424 175.961 203.336C175.013 205.248 174.724 207.419 175.138 209.513C175.497 211.965 176.284 214.335 177.462 216.515C177.836 217.11 178.088 217.773 178.205 218.466C178.322 219.158 178.301 219.867 178.143 220.552C177.986 221.236 177.695 221.883 177.287 222.455C176.879 223.027 176.362 223.513 175.765 223.886L172.446 226.465C171.418 227.378 170.079 227.86 168.705 227.812C167.331 227.764 166.029 227.189 165.068 226.207C163.099 224.363 160.778 222.935 158.244 222.006C156.155 221.197 153.853 221.121 151.715 221.791C149.577 222.461 147.73 223.836 146.477 225.691C144.931 227.852 143.759 230.256 143.009 232.804C142.667 233.985 141.915 235.005 140.887 235.681C139.859 236.357 138.623 236.643 137.402 236.49L131.943 235.679C130.815 235.448 129.793 234.855 129.034 233.99C128.274 233.125 127.819 232.035 127.738 230.888C127.669 227.955 126.991 225.068 125.746 222.411C124.8 220.29 123.133 218.571 121.04 217.559C118.947 216.548 116.563 216.308 114.311 216.883C112.069 217.507 109.885 218.321 107.782 219.316C106.702 219.857 105.473 220.028 104.286 219.801C103.099 219.575 102.02 218.964 101.216 218.063C99.8929 216.63 98.6609 215.116 97.5271 213.53C97.0357 212.563 96.6403 211.551 96.3467 210.508L96.7524 210.545ZM141.534 165.804C139.232 165.79 136.949 166.23 134.817 167.099C132.686 167.968 130.747 169.249 129.112 170.869C127.477 172.488 126.178 174.414 125.291 176.537C124.403 178.659 123.943 180.936 123.939 183.236C123.992 187.777 125.791 192.123 128.964 195.374C132.136 198.626 136.439 200.535 140.981 200.705C143.336 200.844 145.695 200.505 147.916 199.709C150.137 198.912 152.174 197.675 153.903 196.072C155.633 194.468 157.02 192.532 157.981 190.379C158.941 188.225 159.456 185.9 159.493 183.543C159.531 181.186 159.09 178.846 158.198 176.663C157.306 174.481 155.981 172.501 154.303 170.844C152.625 169.186 150.629 167.886 148.434 167.019C146.24 166.153 143.893 165.74 141.534 165.804Z" fill="#4385F5"/>
<path d="M229.511 159.908C229.511 160.571 229.511 161.234 229.511 161.898C229.526 162.765 229.235 163.61 228.689 164.284C228.142 164.959 227.375 165.419 226.523 165.583L222.834 166.505C221.902 166.768 220.906 166.691 220.027 166.285C219.147 165.88 218.442 165.173 218.039 164.293C217.311 162.799 216.421 161.39 215.383 160.092C214.768 159.244 213.985 158.533 213.081 158.004C212.177 157.475 211.174 157.139 210.133 157.018C209.093 156.896 208.039 156.992 207.037 157.3C206.036 157.607 205.109 158.118 204.316 158.802C203.129 159.744 202.007 160.766 200.96 161.861C200.344 162.585 199.494 163.071 198.557 163.232C197.619 163.394 196.655 163.222 195.832 162.745L192.844 160.977C192.341 160.73 191.891 160.385 191.523 159.963C191.155 159.54 190.874 159.049 190.699 158.516C190.524 157.984 190.457 157.422 190.502 156.864C190.548 156.305 190.704 155.761 190.963 155.264C191.543 153.6 191.891 151.864 191.996 150.105C192.151 148.189 191.552 146.289 190.325 144.809C189.099 143.329 187.342 142.386 185.43 142.181C183.586 141.886 181.741 142.181 179.786 141.813C178.851 141.815 177.95 141.462 177.265 140.826C176.58 140.19 176.163 139.317 176.097 138.385C175.938 137.362 175.704 136.352 175.397 135.363C175.112 134.398 175.186 133.362 175.607 132.447C176.027 131.533 176.765 130.801 177.684 130.388C179.449 129.472 181.096 128.346 182.59 127.034C183.879 125.861 184.692 124.257 184.876 122.525C185.059 120.792 184.6 119.053 183.586 117.637C182.705 116.288 181.665 115.051 180.487 113.951C179.993 113.618 179.573 113.187 179.254 112.684C178.936 112.181 178.724 111.617 178.634 111.029C178.544 110.44 178.577 109.839 178.731 109.264C178.885 108.689 179.156 108.151 179.528 107.686C180.044 106.839 180.524 105.954 181.077 105.106C181.57 104.229 182.371 103.566 183.325 103.246C184.28 102.926 185.319 102.972 186.242 103.374C188.305 104.231 190.543 104.584 192.771 104.406C194.291 104.327 195.744 103.75 196.904 102.765C198.064 101.779 198.867 100.439 199.189 98.9519C199.644 96.9833 199.842 94.9642 199.779 92.9448C199.721 92.0206 199.962 91.1023 200.467 90.3257C200.972 89.5491 201.714 88.9556 202.583 88.6329C203.948 88.2275 205.312 87.9327 206.677 87.6379C207.152 87.4796 207.653 87.4194 208.151 87.4608C208.65 87.5023 209.134 87.6445 209.576 87.8789C210.018 88.1133 210.407 88.4349 210.72 88.8243C211.034 89.2137 211.265 89.6626 211.399 90.1439C212.329 92.291 213.758 94.1859 215.567 95.6719C216.98 96.723 218.711 97.2563 220.471 97.1825C222.231 97.1087 223.912 96.4322 225.232 95.2665C226.295 94.42 227.282 93.4828 228.183 92.4657C228.82 91.7386 229.69 91.2536 230.644 91.0924C231.598 90.9313 232.579 91.1039 233.421 91.5812L236.851 93.6081C237.675 94.0948 238.294 94.8639 238.592 95.7723C238.891 96.6808 238.849 97.6667 238.474 98.5465C237.704 100.467 237.328 102.522 237.368 104.591C237.353 106.396 238.003 108.143 239.193 109.502C240.383 110.861 242.03 111.736 243.823 111.961C245.496 112.201 247.186 112.312 248.876 112.293C249.907 112.189 250.937 112.494 251.744 113.142C252.552 113.79 253.072 114.729 253.192 115.757C253.487 116.936 253.819 118.079 254.078 119.443C254.317 120.337 254.21 121.288 253.78 122.107C253.349 122.926 252.626 123.554 251.754 123.865C249.798 124.728 248.041 125.982 246.589 127.55C245.528 128.615 244.839 129.994 244.626 131.482C244.413 132.97 244.688 134.486 245.409 135.806C246.451 137.494 247.689 139.052 249.098 140.449C249.954 141.095 250.525 142.048 250.691 143.108C250.856 144.167 250.602 145.249 249.983 146.125L248.323 148.889C247.854 149.847 247.025 150.582 246.017 150.933C245.009 151.285 243.902 151.226 242.938 150.768C240.5 149.745 237.799 149.526 235.228 150.142C233.924 150.526 232.752 151.263 231.84 152.271C230.929 153.279 230.314 154.519 230.064 155.854C229.792 157.181 229.595 158.522 229.474 159.871L229.511 159.908ZM214.756 113.988C213.03 113.969 211.318 114.292 209.719 114.939C208.119 115.587 206.665 116.545 205.439 117.759C204.214 118.973 203.243 120.418 202.581 122.01C201.92 123.603 201.582 125.31 201.587 127.034C201.492 128.818 201.762 130.603 202.38 132.279C202.998 133.955 203.952 135.488 205.182 136.784C206.413 138.08 207.894 139.113 209.537 139.818C211.18 140.523 212.949 140.887 214.737 140.887C216.525 140.887 218.294 140.523 219.937 139.818C221.58 139.113 223.062 138.08 224.292 136.784C225.522 135.488 226.476 133.955 227.094 132.279C227.712 130.603 227.982 128.818 227.888 127.034C227.898 125.306 227.562 123.593 226.9 121.996C226.238 120.399 225.263 118.95 224.033 117.734C222.803 116.519 221.342 115.562 219.736 114.918C218.13 114.275 216.412 113.959 214.682 113.988H214.756Z" fill="#4385F5"/>
<path d="M195.795 345.466L238.548 348.782C240.569 348.768 242.56 349.262 244.339 350.22C245.615 351.234 246.54 352.622 246.983 354.189C247.426 355.756 247.366 357.423 246.811 358.954C245.634 361.989 243.612 364.624 240.983 366.546C225.453 379.039 203.652 379.666 183.586 379.555L89.1536 379.039C85.5036 379.277 81.8447 378.736 78.4193 377.454C76.7285 376.764 75.2927 375.569 74.3087 374.032C73.3247 372.494 72.8407 370.69 72.9231 368.868C73.3213 367.278 74.0624 365.795 75.0947 364.522C76.1269 363.248 77.4253 362.216 78.8989 361.497C87.3343 356.882 96.574 353.917 106.122 352.763C120.508 350.183 134.919 347.726 149.354 345.392" fill="url(#paint0_linear_15:112)"/>
<path d="M449.84 341.006L492.592 344.286C494.618 344.266 496.614 344.775 498.384 345.76C499.652 346.772 500.571 348.154 501.015 349.713C501.458 351.273 501.402 352.932 500.855 354.458C499.674 357.501 497.637 360.137 494.99 362.05C479.497 374.727 457.697 375.206 437.667 375.059L343.198 374.506C339.548 374.729 335.893 374.189 332.464 372.922C330.746 372.247 329.282 371.054 328.277 369.507C327.272 367.961 326.775 366.14 326.857 364.298C327.243 362.703 327.98 361.215 329.013 359.94C330.047 358.665 331.351 357.636 332.832 356.927C341.325 352.335 350.613 349.396 360.203 348.266C374.589 345.687 389 343.23 403.435 340.896" fill="url(#paint1_linear_15:112)"/>
<path d="M422.469 349.556C422.554 351.77 422.137 353.975 421.252 356.006C420.182 357.885 418.559 359.391 416.604 360.318C412.394 362.496 407.507 362.971 402.956 361.644C402.677 361.632 402.403 361.561 402.154 361.436C401.904 361.312 401.683 361.136 401.506 360.92C401.328 360.705 401.198 360.455 401.124 360.186C401.05 359.917 401.033 359.635 401.074 359.359C401.465 356.839 402.78 354.553 404.763 352.947C406.724 351.367 408.397 349.459 409.706 347.308C411.772 343.107 410.222 331.867 418.19 333.673C424.719 335.073 422.653 344.765 422.469 349.556Z" fill="#CE9E95"/>
<path d="M423.576 356.927C423.576 356.927 424.682 359.691 423.318 361.313C421.953 362.934 407.64 371.816 398.013 364.666C388.385 357.517 411.071 356.595 411.071 356.595L423.576 356.927Z" fill="#4385F5"/>
<path d="M423.022 350.588C422.583 350.376 422.082 350.327 421.61 350.448C421.137 350.569 420.723 350.854 420.44 351.252C419.501 352.325 418.304 353.141 416.962 353.625C415.619 354.109 414.176 354.243 412.768 354.016C409.632 353.279 408.378 349.667 406.829 349.63C405.279 349.593 396.943 356.706 396.463 359.728C395.984 362.75 400.152 364.998 404.947 365.293C409.743 365.588 420.293 362.345 422.321 359.875C423.179 358.498 423.69 356.935 423.812 355.318C423.934 353.701 423.663 352.078 423.022 350.588Z" fill="white"/>
<path d="M449.766 353.794C449.85 356.008 449.434 358.213 448.549 360.244C447.479 362.123 445.856 363.629 443.901 364.556C439.696 366.746 434.808 367.235 430.252 365.919C429.627 365.797 429.065 365.458 428.666 364.961C428.439 364.544 428.336 364.071 428.371 363.597C428.762 361.077 430.077 358.791 432.06 357.185C434.021 355.605 435.694 353.697 437.003 351.546C439.068 347.345 437.519 336.105 445.487 337.911C452.016 339.422 449.95 349.114 449.766 353.794Z" fill="#CE9E95"/>
<path d="M450.873 361.423C450.873 361.423 451.979 364.187 450.614 365.809C449.249 367.43 434.937 376.312 425.309 369.163C415.682 362.013 438.331 361.092 438.331 361.092L450.873 361.423Z" fill="#4385F5"/>
<path d="M450.319 354.974C449.883 354.746 449.377 354.688 448.901 354.81C448.424 354.933 448.009 355.227 447.737 355.637C446.79 356.698 445.591 357.504 444.25 357.981C442.909 358.457 441.47 358.589 440.064 358.364C436.929 357.627 435.675 354.016 434.126 353.979C432.576 353.942 424.24 361.055 423.76 364.077C423.281 367.099 427.449 369.347 432.244 369.641C437.04 369.936 447.59 366.693 449.618 364.224C450.475 362.854 450.987 361.296 451.109 359.685C451.231 358.074 450.96 356.457 450.319 354.974Z" fill="white"/>
<path d="M455.446 236.416C455.446 236.416 456.959 318.083 450.872 345.355L435.527 347.234L424.867 235.31L455.446 236.416Z" fill="#473F47"/>
<path d="M407.972 227.497C407.972 227.497 400.595 271.722 409.522 342.333L424.867 344.213L435.527 232.362L407.972 227.497Z" fill="#473F47"/>
<path d="M390.156 192.339C390.156 195.287 391.299 197.867 393.844 198.714C394.055 198.81 394.279 198.872 394.508 198.899C399.23 199.857 405.575 196.282 409.743 193.15C411.53 191.848 413.242 190.445 414.87 188.948V157.402L391.926 180.877C390.723 184.578 390.125 188.448 390.156 192.339Z" fill="#4385F5"/>
<path d="M409.374 193.039C409.374 194.513 409.374 196.024 409.374 197.498C409.374 205.643 411.255 214.046 408.821 222.043C408.04 223.749 407.808 225.654 408.157 227.497C408.868 228.968 410.086 230.132 411.587 230.777C419.018 234.259 427.014 236.381 435.195 237.042C441.282 237.89 449.95 239.696 455.594 236.416C457.736 234.824 459.167 232.455 459.578 229.819C461.717 221.374 462.954 212.727 463.267 204.022C463.267 202.916 463.267 201.773 463.488 200.631C463.968 192.855 464.115 185.005 463.967 177.229C463.967 171.554 463.414 165.436 459.725 161.161C453.761 155.519 446.224 151.818 438.109 150.547C435.757 150.063 433.346 149.926 430.953 150.142C427.581 150.681 424.325 151.791 421.326 153.422C417.769 154.636 414.744 157.045 412.768 160.24C410.78 164.297 409.377 168.615 408.599 173.065C407.954 177.261 407.879 181.526 408.378 185.742C408.599 187.806 409.116 189.87 409.337 191.897C409.374 192.302 409.374 192.671 409.374 193.039Z" fill="#4385F5"/>
<path opacity="0.1" d="M442.683 239.18C445.044 239.88 450.504 237.742 452.311 237.411C453.381 237.411 454.377 236.674 455.447 236.416C460.869 235.052 461.496 219.905 462.013 215.815C463.878 204.975 465.11 194.035 465.701 183.052C465.948 178.872 465.461 174.681 464.263 170.669C463.664 168.658 462.63 166.804 461.234 165.237C459.838 163.67 458.114 162.43 456.184 161.603C449.286 159.134 447.221 180.951 446.262 185.447L441.097 210.102C440.361 213.14 439.88 216.234 439.659 219.353C439.781 223.145 440.568 226.887 441.983 230.409C442.61 232.583 440.876 236.674 441.724 238.258C441.792 238.481 441.916 238.682 442.084 238.844C442.252 239.005 442.458 239.121 442.683 239.18Z" fill="#020202"/>
<path d="M426.047 143.655C426.908 144.603 428.092 145.195 429.367 145.314C430.435 145.405 431.508 145.405 432.576 145.314H433.203C433.336 145.276 433.477 145.276 433.609 145.314C433.734 145.444 433.812 145.613 433.83 145.793C434.015 147.926 434.015 150.072 433.83 152.205V153.348C433.719 153.746 433.719 154.166 433.83 154.564C434.052 155.043 434.605 155.227 435.122 155.412C436.059 155.735 437.044 155.897 438.036 155.891C440.142 155.696 442.169 154.988 443.938 153.827C443.776 150.131 443.974 146.428 444.528 142.771C445.559 138.164 446.03 133.449 445.93 128.73C445.808 126.876 445.126 125.102 443.974 123.644C443.057 122.756 441.961 122.073 440.759 121.641C439.557 121.209 438.276 121.037 437.003 121.138C433.632 121.069 430.314 121.978 427.449 123.754C426.379 124.455 426.268 125.376 426.01 126.555C425.678 128.398 425.383 130.241 425.162 132.157C424.941 134.073 424.793 136.395 424.756 138.57C424.547 140.366 425.007 142.176 426.047 143.655Z" fill="#CE9E95"/>
<path d="M428.26 117.563C427.609 117.675 427.012 118 426.565 118.486C426.118 118.973 425.845 119.595 425.789 120.253C425.766 120.918 425.968 121.571 426.363 122.106C426.758 122.641 427.323 123.027 427.965 123.201C427.867 123.955 428.06 124.718 428.506 125.335C428.952 125.951 429.616 126.374 430.363 126.518C431.873 126.739 433.415 126.548 434.826 125.966C435.595 126.918 436.68 127.565 437.884 127.788C439.088 128.011 440.333 127.796 441.392 127.182V128.029C442.095 129.501 442.532 131.086 442.683 132.71L442.278 135.842C442.371 135.033 442.779 134.293 443.414 133.783C444.049 133.272 444.86 133.032 445.671 133.115C445.897 133.091 446.125 133.115 446.341 133.185C446.558 133.255 446.756 133.369 446.925 133.52C447.065 133.744 447.154 133.996 447.184 134.258C447.207 134.745 447.112 135.231 446.906 135.674C446.701 136.117 446.391 136.503 446.003 136.8C445.45 137.169 444.749 137.427 444.491 138.053C444.308 138.654 444.308 139.295 444.491 139.896C444.64 140.602 444.563 141.337 444.27 141.997L445.302 141.739C445.607 141.576 445.892 141.378 446.151 141.149C446.432 140.838 446.641 140.468 446.762 140.067C446.883 139.665 446.914 139.242 446.852 138.827C447.402 138.829 447.944 138.699 448.433 138.448C448.922 138.197 449.343 137.832 449.661 137.384C449.979 136.936 450.185 136.418 450.261 135.874C450.337 135.33 450.281 134.775 450.098 134.258C450.37 134.222 450.633 134.132 450.87 133.993C451.107 133.854 451.314 133.67 451.479 133.45C451.644 133.23 451.763 132.98 451.83 132.714C451.897 132.447 451.91 132.17 451.868 131.899C451.651 130.802 451.141 129.783 450.393 128.951C451.257 128.941 452.083 128.591 452.691 127.977C453.298 127.363 453.639 126.534 453.639 125.671C453.565 125.17 453.565 124.661 453.639 124.16C453.854 123.591 454.152 123.057 454.524 122.575C454.854 121.943 454.971 121.222 454.858 120.518C454.745 119.815 454.408 119.166 453.897 118.668C453.159 118.005 452.127 117.673 451.573 116.863C451.277 116.107 451.09 115.313 451.02 114.504C450.356 111.519 447.036 110.118 444.122 109.16C443.339 108.842 442.494 108.703 441.651 108.755C441.232 108.788 440.835 108.957 440.522 109.236C440.209 109.516 439.996 109.891 439.917 110.303C439.123 109.635 438.146 109.224 437.113 109.123C436.117 109.123 435.011 110.045 435.269 111.003C434.863 109.381 432.134 113.583 431.986 113.693C430.179 114.799 427.412 113.693 428.26 117.563Z" fill="#473F47"/>
<path d="M432.576 145.387H433.203C433.336 145.35 433.477 145.35 433.609 145.387C433.734 145.518 433.812 145.687 433.83 145.867C434.015 148 434.015 150.146 433.83 152.279C435.736 151.693 437.38 150.466 438.482 148.807C439.585 147.148 440.079 145.158 439.88 143.176C437.505 144.151 435.031 144.868 432.503 145.314L432.576 145.387Z" fill="#AF807A"/>
<path d="M370.827 184.194C373.843 188.495 377.588 192.237 381.893 195.25C384.982 197.331 388.548 198.599 392.258 198.936C392.746 198.986 393.238 198.923 393.697 198.751C394.488 198.518 395.185 198.041 395.689 197.388C397.237 195.546 398.167 193.264 398.345 190.865C398.603 184.563 391.779 180.914 391.779 180.914C391.779 180.914 376.249 175.976 374.405 176.787C373.409 177.192 372.45 179.403 371.786 181.283C371.122 183.162 370.827 184.194 370.827 184.194Z" fill="#4385F5"/>
<path opacity="0.1" d="M370.827 184.194C373.843 188.495 377.588 192.237 381.893 195.25C384.982 197.331 388.548 198.599 392.258 198.936C392.746 198.986 393.238 198.923 393.697 198.752C393.907 198.847 394.131 198.909 394.361 198.936C399.082 199.894 405.427 196.319 409.595 193.187L408.12 183.752C405.294 186.719 402.005 189.209 398.382 191.123C395.83 192.488 392.914 193.016 390.045 192.634C389.267 192.521 388.51 192.297 387.795 191.97C381.975 189.135 376.566 185.527 371.712 181.246C371.196 182.831 370.827 184.194 370.827 184.194Z" fill="#020202"/>
<path d="M473.632 194.476C476.028 199.895 477.066 205.815 476.657 211.724C475.624 218.8 470.902 224.733 466.365 230.151C462.676 230.704 458.139 230.63 456.848 227.239C456.551 226.147 456.476 225.007 456.627 223.886L457.143 216.515C457.565 213.267 457.39 209.97 456.627 206.786C455.217 203.322 453.37 200.052 451.131 197.056C447.898 191.921 445.961 186.078 445.487 180.03C445.081 174.354 449.397 156.001 457.77 161.603C461.238 163.888 464.336 173.322 466.181 177.118C468.984 182.794 471.468 188.58 473.632 194.476Z" fill="#4385F5"/>
<path d="M454.709 235.31C454.523 235.582 454.42 235.902 454.414 236.232C454.414 236.32 454.436 236.406 454.477 236.484C454.518 236.562 454.577 236.629 454.65 236.679C454.722 236.73 454.805 236.762 454.892 236.774C454.979 236.786 455.068 236.777 455.151 236.747C456 239.364 454.229 242.128 454.229 244.892C454.193 245.136 454.193 245.385 454.229 245.629C454.364 245.929 454.581 246.185 454.856 246.366C455.321 246.66 455.852 246.83 456.4 246.863C456.949 246.895 457.496 246.787 457.992 246.551C458.984 246.077 459.874 245.413 460.611 244.597C462.197 243.142 463.4 241.32 464.115 239.29C464.379 238.351 464.552 237.388 464.632 236.416L465.517 229.045C460.242 227.387 457.217 230.961 454.709 235.31Z" fill="#CE9E95"/>
<path d="M371.712 170.706C371.559 170.212 371.279 169.767 370.9 169.416C370.814 169.327 370.711 169.256 370.597 169.207C370.483 169.159 370.36 169.134 370.236 169.134C370.112 169.134 369.99 169.159 369.876 169.207C369.762 169.256 369.658 169.327 369.572 169.416C369.426 169.676 369.338 169.966 369.314 170.264C369.171 170.583 368.938 170.855 368.643 171.044C368.349 171.234 368.005 171.334 367.654 171.332C366.952 171.287 366.264 171.112 365.625 170.816C363.774 170.145 361.891 169.567 359.982 169.084C359.538 168.938 359.06 168.938 358.617 169.084C358.385 169.205 358.18 169.372 358.015 169.575C357.85 169.778 357.729 170.012 357.658 170.264C357.262 171.425 357.162 172.668 357.368 173.877C357.574 175.087 358.08 176.227 358.838 177.192C360.392 179.114 362.507 180.505 364.888 181.172C367.296 181.817 369.773 182.176 372.265 182.241C372.88 182.327 373.507 182.238 374.073 181.983C377.024 180.288 372.56 172.659 371.712 170.706Z" fill="#CE9E95"/>
<path d="M194.246 225.765C194.246 225.765 194.246 259.892 191.812 266.083C185.504 283.404 177.057 290.48 177.057 290.48C173.737 303.035 170.441 315.602 167.171 328.181C170.38 331.867 175.729 335.552 179.344 332.346C180.288 331.4 181.028 330.271 181.52 329.029L198.894 291.217C202.654 283.865 205.455 276.063 207.23 267.999V267.299V267.115C207.23 266.636 207.489 265.051 207.71 262.766C208.263 256.096 207.157 224.549 204.021 216.257C204.021 216.257 192.328 220.274 188.971 215.704L194.246 225.765Z" fill="#4385F5"/>
<path d="M194.246 225.765C194.246 225.765 194.246 259.892 191.812 266.083C185.504 283.404 177.057 290.48 177.057 290.48C173.737 303.035 170.441 315.602 167.171 328.181C170.38 331.867 175.729 335.552 179.344 332.346C180.288 331.4 181.028 330.271 181.52 329.029L198.894 291.217C202.654 283.865 205.455 276.063 207.23 267.999V267.299V267.115C207.23 266.636 207.489 265.051 207.71 262.766C208.263 256.096 207.267 230.556 204.316 222.227C202.446 222.557 200.523 222.424 198.716 221.839C196.909 221.255 195.273 220.236 193.951 218.874L194.246 225.765Z" fill="url(#paint2_linear_15:112)"/>
<path d="M165.142 220.864C162.044 225.415 160.864 231.002 161.859 236.416C163.039 244.56 168.868 251.157 170.048 259.191C170.273 261.26 169.805 263.345 168.717 265.119C167.629 266.893 165.982 268.256 164.035 268.994L141.313 280.714C137.376 282.333 133.958 284.996 131.427 288.416C130.258 290.151 129.805 292.269 130.162 294.329C130.52 296.39 131.66 298.232 133.345 299.472L177.093 290.591C185.536 285.466 191.789 277.409 194.652 267.962C196.312 261.587 194.062 218.874 194.062 218.874C186.979 212.092 184.545 214.635 180.155 209.476C174.88 213.456 169.089 215.52 165.142 220.864Z" fill="#4385F5"/>
<path d="M129.877 306.474C129.877 308.944 130.357 311.892 128.476 313.55C128.4 313.646 128.305 313.725 128.197 313.782C128.089 313.839 127.97 313.873 127.849 313.882C127.489 313.875 127.145 313.73 126.889 313.477C122.574 309.791 121.43 303.637 121.061 297.961C120.799 296.534 121.047 295.06 121.762 293.797C122.758 292.763 124.044 292.056 125.451 291.77C127.691 291.085 129.864 290.197 131.943 289.116C131.316 289.448 131.537 293.134 131.537 293.76C131.817 295.143 131.953 296.551 131.943 297.961C131.533 299.216 131.053 300.446 130.504 301.647C130.041 303.213 129.83 304.842 129.877 306.474Z" fill="#EC9C7D"/>
<path d="M177.721 341.522C178.878 343.285 179.493 345.348 179.491 347.456C179.462 347.839 179.307 348.202 179.048 348.488C178.274 349.225 177.02 348.709 176.171 348.119C172.914 345.524 170.12 342.396 167.908 338.869C167.553 338.459 167.311 337.964 167.208 337.432C167.186 336.711 167.392 336.001 167.798 335.405L170.306 330.798C170.373 330.653 170.475 330.527 170.601 330.429C170.769 330.373 170.95 330.373 171.118 330.429C172.445 330.693 173.742 331.088 174.991 331.609C176.688 332.309 176.725 332.383 176.54 334.115C176.288 336.644 176.694 339.196 177.721 341.522Z" fill="#EC9C7D"/>
<path d="M165.142 341.522C165.07 341.763 165.07 342.019 165.142 342.259C165.142 342.591 165.548 342.812 165.806 342.996C167.268 344.169 168.603 345.49 169.79 346.94C172.45 349.598 175.297 352.061 178.311 354.31C178.88 354.898 179.562 355.365 180.316 355.681C181.071 355.998 181.882 356.159 182.7 356.153C182.883 356.19 183.071 356.19 183.254 356.153C183.453 355.943 183.571 355.668 183.586 355.379C183.869 352.857 183.447 350.306 182.368 348.009C182.03 347.103 181.53 346.267 180.893 345.539C180.559 345.181 180.153 344.897 179.702 344.706C179.25 344.515 178.764 344.423 178.274 344.434C177.204 344.434 176.245 345.318 175.138 345.318C174.04 345.137 173.058 344.527 172.409 343.623C171.553 342.655 170.775 341.619 170.085 340.527C169.568 339.716 169.089 338.242 168.24 337.726C166.285 336.326 165.511 340.269 165.142 341.522Z" fill="#4385F5"/>
<path d="M118.7 294.792C118.548 294.877 118.415 294.995 118.312 295.136C118.208 295.277 118.137 295.439 118.102 295.61C118.067 295.782 118.069 295.959 118.109 296.129C118.148 296.3 118.224 296.459 118.332 296.598C118.954 298.627 119.374 300.714 119.586 302.826C120.375 307.068 121.485 311.245 122.906 315.319C123.078 316.24 123.431 317.118 123.943 317.902C124.456 318.686 125.119 319.362 125.894 319.889C126.112 319.941 126.339 319.941 126.558 319.889C126.874 319.803 127.157 319.623 127.369 319.373C129.291 317.155 130.567 314.453 131.058 311.56C131.279 310.466 131.279 309.338 131.058 308.243C130.971 307.695 130.768 307.171 130.463 306.708C130.158 306.244 129.757 305.85 129.287 305.553C128.217 304.963 126.816 305.111 125.783 304.374C125.311 303.959 124.933 303.448 124.672 302.877C124.411 302.305 124.275 301.685 124.27 301.057C124.088 299.603 124.014 298.137 124.049 296.671C124.049 295.529 124.529 293.834 124.049 292.986C123.053 290.591 119.807 293.834 118.7 294.792Z" fill="#4385F5"/>
<path d="M207.23 138.312C206.607 143.432 205.136 148.414 202.878 153.053C202.736 153.53 202.437 153.946 202.029 154.232C201.639 154.418 201.206 154.494 200.775 154.453L183.586 154.232C182.221 154.232 180.524 154.011 179.897 152.721C179.344 153.864 177.757 153.938 176.503 153.79C171.008 153.157 165.68 151.507 160.789 148.925C162.656 142.248 165.049 135.73 167.945 129.43C168.935 127.203 170.295 125.16 171.966 123.386C174.227 121.245 176.936 119.634 179.897 118.669C187.274 116.015 197.787 114.541 203.431 121.359C205.177 123.782 206.414 126.533 207.067 129.447C207.72 132.36 207.776 135.376 207.23 138.312Z" fill="#F89659"/>
<path d="M206.714 162.709C213.612 169.821 220.694 176.824 227.445 184.084C229.56 182.578 231.779 181.224 234.085 180.03C237.183 178.777 257.361 168.568 265.144 166.984C269.313 166.134 273.63 166.362 277.686 167.647C278.356 167.8 278.939 168.211 279.309 168.789C279.862 169.895 278.645 171.111 277.464 171.369C276.218 171.462 274.983 171.671 273.776 171.996C272.791 172.579 271.947 173.371 271.304 174.317C269.973 175.811 268.343 177.01 266.519 177.835C264.696 178.66 262.719 179.094 260.717 179.108C259.057 179.108 257.361 178.298 255.738 178.408C253.497 179.037 251.436 180.186 249.725 181.762C244.302 185.447 239.47 190.128 233.974 193.813C232.908 194.668 231.636 195.227 230.285 195.435C229.008 195.428 227.748 195.139 226.596 194.587C218.46 191.901 210.937 187.63 204.464 182.02C203.932 181.54 203.494 180.965 203.173 180.325C202.964 179.657 202.865 178.96 202.878 178.261C202.878 175.386 202.878 172.475 202.878 169.6C202.879 168.324 203.169 167.064 203.726 165.915C204.034 165.33 204.525 164.861 205.125 164.582C205.725 164.302 206.399 164.227 207.046 164.367" fill="#FDB9A9"/>
<path d="M219.846 185.226C220.507 185.766 221.239 186.213 222.022 186.553C223.758 187.115 225.597 187.292 227.408 187.069C230.158 187.007 232.909 187.167 235.634 187.548C236.326 187.598 236.997 187.813 237.589 188.174C237.875 188.359 238.094 188.631 238.214 188.949C238.333 189.268 238.347 189.616 238.253 189.943C238.067 190.295 237.802 190.598 237.478 190.828C235.435 192.812 232.881 194.189 230.101 194.808C226.64 194.892 223.25 193.815 220.473 191.749L214.424 188.064C213.512 187.628 212.716 186.984 212.1 186.184C211.251 184.858 211.067 181.209 213.132 180.841C215.198 180.472 218.481 184.305 219.846 185.226Z" fill="#DE9F93"/>
<path d="M203.173 157.918C200.997 156.259 198.451 157.402 195.795 157.512C193.139 157.623 189.856 157.733 186.905 157.512C181.262 157.328 172.15 156.738 166.949 162.893C160.752 170.264 165.621 182.425 168.831 190.165C169.963 192.185 170.761 194.375 171.191 196.651C171.523 199.171 171.523 201.723 171.191 204.243C170.469 209.162 168.529 213.823 165.548 217.805C164.86 218.46 164.314 219.249 163.946 220.124C163.578 221 163.395 221.941 163.408 222.891C163.658 223.71 164.085 224.465 164.659 225.101C165.232 225.738 165.939 226.241 166.728 226.576C172.626 230.018 179.271 231.978 186.094 232.288C189.277 232.238 192.445 231.83 195.537 231.072C198.341 230.63 201.402 231.588 203.468 228.971C204.111 228.051 204.562 227.011 204.796 225.913C207.157 217.031 207.12 207.486 210.661 199.083C212.542 194.513 215.715 188.985 215.42 183.899C215.211 181.937 214.688 180.021 213.87 178.224C212.1 173.765 210.181 169.379 208.042 165.104C206.98 162.374 205.316 159.917 203.173 157.918Z" fill="white"/>
<path d="M196.201 159.76C196.201 159.76 194.357 164.404 182.073 157.549C182.073 157.549 185.393 157.254 184.471 150.436C184.209 148.089 183.387 145.84 182.073 143.876C182.221 144.027 182.406 144.136 182.61 144.19C182.814 144.245 183.029 144.244 183.233 144.188C183.436 144.131 183.621 144.021 183.767 143.869C183.913 143.717 184.016 143.529 184.065 143.324C184.29 143.998 184.574 144.652 184.914 145.277C186.832 148.962 191.037 153.348 195.722 152.095C195.255 152.984 194.975 153.959 194.898 154.961C194.822 155.962 194.952 156.968 195.279 157.918C195.513 158.566 195.823 159.184 196.201 159.76Z" fill="#FDB9A9"/>
<path d="M195.279 157.918H194.652C190.041 158.397 184.618 144.945 184.618 144.945H184.914C186.832 148.631 191.037 153.016 195.722 151.763C195.207 152.696 194.901 153.729 194.825 154.792C194.748 155.854 194.903 156.921 195.279 157.918Z" fill="#DE9F93"/>
<path d="M191.775 152.611C198.488 153.2 202.62 146.898 203.357 138.68C203.357 137.771 203.357 136.85 203.357 135.916C203.373 133.235 203.063 130.562 202.435 127.956C199.484 115.315 181.52 120.364 181.52 120.364C167.503 126.703 179.897 151.653 191.775 152.611Z" fill="#FDB9A9"/>
<path d="M196.57 120.106C196.356 121.095 196.072 122.068 195.722 123.017C195.156 125.007 194.479 126.963 193.693 128.877C192.332 132.714 189.738 135.992 186.315 138.201C185.518 138.765 184.562 139.062 183.586 139.049C182.663 138.864 182.737 138.164 182.036 137.501C181.8 137.276 181.501 137.127 181.178 137.074C180.856 137.022 180.525 137.068 180.229 137.206C179.986 137.398 179.792 137.646 179.664 137.928C179.536 138.21 179.477 138.518 179.491 138.827C179.504 139.569 179.704 140.294 180.071 140.938C180.439 141.582 180.962 142.124 181.594 142.513C182.19 142.774 182.759 143.095 183.29 143.471C183.918 144.024 183.991 144.835 184.323 145.535L185.43 148.151C185.839 148.975 186.041 149.886 186.02 150.805C185.923 151.335 185.711 151.837 185.399 152.277C185.087 152.716 184.682 153.082 184.213 153.348C181.768 154.597 178.965 154.962 176.282 154.38C174.373 154.273 172.521 153.69 170.896 152.684C169.996 151.956 169.146 151.168 168.351 150.326C167.055 149.375 165.642 148.594 164.146 148.004C165.69 146.94 167.028 145.604 168.093 144.061C168.977 142.604 169.534 140.973 169.725 139.281C169.916 137.588 169.737 135.874 169.199 134.258C168.609 132.194 169.199 121.211 176.946 117.563C181.925 115.384 187.474 114.867 192.771 116.089C193.752 116.24 194.671 116.661 195.426 117.305C195.853 117.625 196.184 118.055 196.385 118.548C196.586 119.041 196.65 119.579 196.57 120.106Z" fill="#F89659"/>
<path d="M184.618 196.909L179.491 208.223C172.752 199.605 167.571 189.876 164.183 179.477C160.494 166.32 167.023 163.003 167.023 163.003C172.04 161.161 175.433 168.274 180.34 182.683C183.032 190.607 184.618 196.909 184.618 196.909Z" fill="#FDB9A9"/>
<path d="M179.491 208.223C179.491 208.223 179.27 199.009 183.77 197.167C188.27 195.324 219.698 190.386 219.698 190.386L222.649 193.813C222.649 193.813 191.775 211.613 179.491 208.223Z" fill="#FDB9A9"/>
<path d="M230.47 232.509L230.064 232.104C231.613 233.836 232.646 235.052 232.941 235.421C232.166 234.426 231.318 233.431 230.47 232.509Z" fill="#DC9BD5"/>
<path d="M223.092 189.906C225.786 189.435 228.511 189.164 231.244 189.096C232.717 189.034 234.192 189.157 235.634 189.464C237.438 189.943 239.183 190.623 240.835 191.491C241.278 191.712 241.831 192.007 241.905 192.523C241.913 192.761 241.851 192.996 241.726 193.199C241.601 193.402 241.42 193.565 241.204 193.665C240.765 193.851 240.308 193.987 239.839 194.071C238.843 194.403 237.958 195.066 236.999 195.471C235.449 196.098 233.679 196.024 232.093 196.577C231.097 196.945 230.174 197.572 229.179 197.977C227.09 198.788 224.774 198.788 222.686 197.977C221.969 197.696 221.267 197.376 220.584 197.019C219.928 196.633 219.236 196.312 218.518 196.061C218.039 196.061 217.707 196.061 217.338 195.619C217.014 195.059 216.843 194.423 216.843 193.776C216.843 193.129 217.014 192.494 217.338 191.933C218.259 191.104 219.454 190.644 220.694 190.644L223.092 189.906Z" fill="#FDB9A9"/>
<path d="M162.191 167.5C161.399 169.894 160.855 172.364 160.568 174.87L160.088 178.261C159.877 178.958 159.877 179.701 160.088 180.398C160.678 181.578 162.929 181.098 164.035 181.283L170.085 182.241L182.147 184.01C182.405 181.954 182.405 179.874 182.147 177.819C181.778 175.902 180.93 174.133 180.45 172.18C179.971 170.227 179.897 168.974 179.528 167.536C178.674 164.287 176.735 161.427 174.032 159.429C169.79 156.333 163.593 163.814 162.302 167.205L162.191 167.5Z" fill="white"/>
<path d="M370.089 110.892H241.204V226.613H370.089V110.892Z" fill="white"/>
<path d="M274.545 187.419L258.758 187.491L258.864 210.929L274.652 210.858L274.545 187.419Z" fill="#4385F5"/>
<path d="M293.911 163.008L278.123 163.08L278.34 210.805L294.128 210.733L293.911 163.008Z" fill="#4385F5"/>
<path d="M313.472 181.604L297.684 181.676L297.816 210.753L313.604 210.681L313.472 181.604Z" fill="#4385F5"/>
<path d="M332.757 147.722L316.97 147.794L317.255 210.665L333.043 210.594L332.757 147.722Z" fill="#4385F5"/>
<path d="M293.911 163.008L278.123 163.08L278.34 210.805L294.128 210.733L293.911 163.008Z" fill="url(#paint3_linear_15:112)"/>
<path d="M332.757 147.722L316.97 147.794L317.255 210.665L333.043 210.594L332.757 147.722Z" fill="url(#paint4_linear_15:112)"/>
<path d="M352.154 130.092L336.366 130.163L336.731 210.577L352.519 210.505L352.154 130.092Z" fill="#4385F5"/>
<path d="M317.487 325.122L285.727 324.091L289.674 346.719L312.175 347.419L317.487 325.122Z" fill="#4385F5"/>
<path d="M317.487 325.122L285.727 324.091L289.674 346.719L312.175 347.419L317.487 325.122Z" fill="url(#paint5_linear_15:112)"/>
<path d="M283.182 269.473C282.374 271.057 281.981 272.819 282.038 274.596C281.316 282.604 282.015 290.676 284.104 298.44C287.793 309.681 295.834 318.747 303.839 327.444C303.212 326.486 305.019 321.4 305.241 320.073C305.72 317.678 306.237 315.319 306.716 312.961C307.229 309.162 306.889 305.297 305.72 301.647C303.727 293.331 299.797 285.603 294.248 279.092C291.048 275.365 287.32 272.124 283.182 269.473Z" fill="#4385F5"/>
<path d="M283.182 269.473C282.374 271.057 281.981 272.819 282.038 274.596C281.316 282.604 282.015 290.676 284.104 298.44C287.793 309.681 295.834 318.747 303.839 327.444C303.212 326.486 305.019 321.4 305.241 320.073C305.72 317.678 306.237 315.319 306.716 312.961C307.229 309.162 306.889 305.297 305.72 301.647C303.727 293.331 299.797 285.603 294.248 279.092C291.048 275.365 287.32 272.124 283.182 269.473Z" fill="url(#paint6_linear_15:112)"/>
<path d="M318.668 296.598C321.61 290.764 323.768 284.569 325.086 278.171C325.744 274.956 325.757 271.642 325.123 268.422C324.49 265.202 323.224 262.14 321.397 259.412L306.015 282.704C302.842 287.041 300.354 291.838 298.638 296.929C297.421 302.12 297.307 307.508 298.305 312.745C299.302 317.982 301.389 322.952 304.429 327.334C307.86 324.385 309.483 317.641 311.364 313.477L318.668 296.598Z" fill="#4385F5"/>
<path d="M318.668 296.598C321.61 290.764 323.768 284.569 325.086 278.171C325.744 274.956 325.757 271.642 325.123 268.422C324.49 265.202 323.224 262.14 321.397 259.412L306.015 282.704C302.842 287.041 300.354 291.838 298.638 296.929C297.421 302.12 297.307 307.508 298.305 312.745C299.302 317.982 301.389 322.952 304.429 327.334C307.86 324.385 309.483 317.641 311.364 313.477L318.668 296.598Z" fill="url(#paint7_linear_15:112)"/>
<path d="M318.945 317.373L284.916 316.274C282.065 316.182 279.68 318.408 279.588 321.246C279.496 324.084 281.733 326.459 284.583 326.551L318.613 327.649C321.463 327.741 323.849 325.515 323.94 322.678C324.032 319.84 321.796 317.465 318.945 317.373Z" fill="#4385F5"/>
<path d="M286.133 158.802C287.579 158.802 288.752 157.631 288.752 156.185C288.752 154.74 287.579 153.569 286.133 153.569C284.686 153.569 283.514 154.74 283.514 156.185C283.514 157.631 284.686 158.802 286.133 158.802Z" fill="#4385F5"/>
<path d="M264.111 183.752C265.557 183.752 266.73 182.581 266.73 181.135C266.73 179.69 265.557 178.519 264.111 178.519C262.665 178.519 261.492 179.69 261.492 181.135C261.492 182.581 262.665 183.752 264.111 183.752Z" fill="#4385F5"/>
<path d="M305.093 178.814C306.539 178.814 307.712 177.642 307.712 176.197C307.712 174.752 306.539 173.58 305.093 173.58C303.647 173.58 302.474 174.752 302.474 176.197C302.474 177.642 303.647 178.814 305.093 178.814Z" fill="#4385F5"/>
<path d="M323.906 144.908C325.352 144.908 326.525 143.737 326.525 142.292C326.525 140.847 325.352 139.675 323.906 139.675C322.459 139.675 321.287 140.847 321.287 142.292C321.287 143.737 322.459 144.908 323.906 144.908Z" fill="#4385F5"/>
<path d="M344.452 128.508C345.898 128.508 347.071 127.337 347.071 125.892C347.071 124.447 345.898 123.275 344.452 123.275C343.006 123.275 341.833 124.447 341.833 125.892C341.833 127.337 343.006 128.508 344.452 128.508Z" fill="#4385F5"/>
<path d="M264.701 181.651L263.484 180.583L286.133 154.969L304.909 175.681L323.389 141.665L343.936 125.229L344.932 126.518L324.533 142.808L305.241 178.519L286.133 157.402L264.701 181.651Z" fill="#4385F5"/>
<path opacity="0.31" d="M340.579 74.1863C340.579 77.7572 339.162 81.1825 336.638 83.711C334.114 86.2395 330.689 87.6649 327.115 87.6747H292.478C288.897 87.6747 285.463 86.2536 282.931 83.724C280.399 81.1945 278.977 77.7636 278.977 74.1863C278.977 70.6089 280.399 67.1781 282.931 64.6485C285.463 62.119 288.897 60.6979 292.478 60.6979H297.457C297.438 60.3419 297.438 59.9851 297.457 59.6291C297.399 56.345 298.648 53.1721 300.931 50.8084C303.214 48.4447 306.343 47.0838 309.63 47.0252C312.917 46.9665 316.093 48.2149 318.459 50.4957C320.825 52.7764 322.187 55.9027 322.246 59.1869V59.6291C322.265 59.9851 322.265 60.3419 322.246 60.6979H327.226C328.997 60.6979 330.751 61.047 332.387 61.7253C334.022 62.4036 335.508 63.3977 336.759 64.6507C338.01 65.9037 339.001 67.391 339.675 69.0273C340.35 70.6635 340.694 72.4167 340.689 74.1863H340.579Z" fill="#4385F5"/>
<path d="M336.411 72.8964C336.411 76.4737 334.988 79.9046 332.456 82.4341C329.924 84.9637 326.49 86.3848 322.91 86.3848H288.309C286.479 86.4805 284.649 86.203 282.93 85.5692C281.211 84.9355 279.639 83.9588 278.31 82.6986C276.981 81.4384 275.922 79.921 275.199 78.239C274.476 76.557 274.103 74.7455 274.103 72.9148C274.103 71.0841 274.476 69.2726 275.199 67.5906C275.922 65.9086 276.981 64.3913 278.31 63.1311C279.639 61.8708 281.211 60.8941 282.93 60.2604C284.649 59.6267 286.479 59.3492 288.309 59.4448H293.252C293.252 59.0763 293.252 58.7078 293.252 58.3392C293.252 55.0551 294.558 51.9055 296.882 49.5833C299.207 47.261 302.359 45.9564 305.646 45.9564C308.934 45.9564 312.086 47.261 314.41 49.5833C316.735 51.9055 318.041 55.0551 318.041 58.3392C318.06 58.6952 318.06 59.052 318.041 59.408H322.984C326.548 59.4371 329.958 60.8698 332.472 63.3952C334.986 65.9206 336.401 69.3347 336.411 72.8964Z" fill="white"/>
<path d="M445.929 132.12C446.089 132.036 446.266 131.992 446.446 131.992C446.626 131.992 446.803 132.036 446.962 132.12C447.108 132.261 447.21 132.44 447.257 132.636C447.63 133.5 447.659 134.473 447.336 135.357C447.014 136.241 446.365 136.969 445.524 137.39C445.259 137.583 444.958 137.721 444.638 137.796C444.481 137.838 444.316 137.836 444.16 137.791C444.003 137.745 443.863 137.658 443.753 137.538C443.547 137.305 443.441 137 443.458 136.69C443.254 135.759 443.391 134.785 443.845 133.947C444.298 133.108 445.038 132.46 445.929 132.12Z" fill="#CE9E95"/>
<path d="M414.981 67.3315C414.987 70.3148 414.184 73.2441 412.657 75.8078V76.029L405.28 89.5174H389.787L383.516 74.9602C382.378 72.7245 381.761 70.2605 381.712 67.7528C381.663 65.2452 382.182 62.7588 383.231 60.4802C384.28 58.2016 385.832 56.1897 387.77 54.5954C389.708 53.001 391.982 51.8656 394.422 51.2741C396.861 50.6826 399.403 50.6504 401.857 51.1799C404.311 51.7095 406.613 52.787 408.591 54.3317C410.569 55.8765 412.171 57.8484 413.278 60.0997C414.384 62.351 414.967 64.8234 414.981 67.3315Z" fill="#4385F5"/>
<path d="M414.981 67.3316C414.987 70.3149 414.184 73.2441 412.657 75.8079V76.029L405.279 89.5174H389.787L383.516 74.9603C381.68 71.3858 381.199 67.2687 382.161 63.3678C383.124 59.4668 385.465 56.0449 388.754 53.7326C391.558 51.7521 394.911 50.6956 398.345 50.7106C400.529 50.7106 402.693 51.1405 404.711 51.9758C406.729 52.8111 408.563 54.0354 410.108 55.5788C411.653 57.1222 412.878 58.9545 413.715 60.971C414.551 62.9876 414.981 65.1489 414.981 67.3316Z" fill="url(#paint8_linear_15:112)"/>
<path d="M406.718 66.9998C406.349 74.3706 399.857 89.5174 399.857 89.5174H389.787L383.516 74.9602C381.68 71.3857 381.199 67.2686 382.161 63.3677C383.124 59.4668 385.465 56.0449 388.754 53.7325C390.831 53.0829 393.033 52.9324 395.18 53.2931C397.326 53.6538 399.358 54.5156 401.108 55.8085C402.859 57.1013 404.279 58.7886 405.254 60.7333C406.229 62.6779 406.73 64.825 406.718 66.9998Z" fill="url(#paint9_linear_15:112)"/>
<path d="M389.787 89.4805H405.021V94.4557C405.021 96.4105 404.244 98.2853 402.861 99.6676C401.477 101.05 399.6 101.826 397.644 101.826H396.906C394.949 101.826 393.073 101.05 391.689 99.6676C390.306 98.2853 389.529 96.4105 389.529 94.4557V89.4805H389.787Z" fill="#4385F5"/>
<path d="M394.213 90.0702C394.072 90.0809 393.932 90.0371 393.823 89.948C393.713 89.8589 393.642 89.7312 393.623 89.5911C391.152 76.6555 390.783 74.6654 390.709 74.3706C390.687 74.2195 390.725 74.066 390.815 73.9423C390.904 73.8186 391.038 73.7343 391.188 73.7072H392.775C393.66 73.7072 393.955 73.7072 394.103 73.0439C394.143 72.7172 394.3 72.4162 394.545 72.1962C394.764 72.0408 395.034 71.9735 395.301 72.0076C395.567 72.0417 395.811 72.1749 395.984 72.3805C396.22 72.6511 396.374 72.9836 396.427 73.3387L396.869 75.0708C396.869 75.0708 396.869 75.0708 396.869 74.8128C396.936 74.4284 397.087 74.0635 397.312 73.7441C397.47 73.5731 397.665 73.441 397.883 73.3579C398.1 73.2748 398.334 73.243 398.566 73.265C398.975 73.2957 399.357 73.4801 399.636 73.7809C399.636 73.1176 400.005 72.4542 400.226 71.8277C400.447 71.2012 400.964 71.0538 401.074 71.1275C401.27 71.133 401.457 71.2057 401.605 71.3333C401.753 71.4608 401.852 71.6355 401.886 71.8277C402.029 72.345 402.116 72.8764 402.144 73.4124C402.114 73.5707 402.114 73.7332 402.144 73.8915H402.587H403.066H404.099C404.185 73.8942 404.268 73.9153 404.345 73.9535C404.421 73.9917 404.488 74.0459 404.542 74.1126C404.575 74.188 404.593 74.2696 404.593 74.3522C404.593 74.4347 404.575 74.5163 404.542 74.5917L401.554 89.8491C401.551 89.9346 401.53 90.0186 401.492 90.0952C401.454 90.1717 401.4 90.2391 401.333 90.2926C401.266 90.3461 401.189 90.3845 401.106 90.405C401.022 90.4255 400.936 90.4277 400.852 90.4115C400.768 90.3952 400.688 90.3609 400.619 90.3109C400.549 90.2608 400.492 90.1963 400.45 90.1218C400.408 90.0472 400.382 89.9645 400.376 89.8792C400.369 89.7939 400.381 89.7082 400.41 89.628L403.251 75.0708H402.66C402.218 75.0708 401.443 75.2919 401.037 74.6654C400.87 74.3602 400.781 74.0183 400.779 73.6704C400.71 73.9699 400.624 74.2652 400.521 74.5549C400.3 75.4025 399.746 75.5868 399.341 75.5131C399.183 75.473 399.035 75.3996 398.908 75.2979C398.781 75.1962 398.677 75.0685 398.603 74.9234C398.603 74.9234 398.603 74.7023 398.308 74.7023C398.269 74.6796 398.224 74.6677 398.179 74.6677C398.133 74.6677 398.089 74.6796 398.05 74.7023C397.941 74.8705 397.866 75.0582 397.828 75.2551C397.762 75.5882 397.651 75.9107 397.496 76.2133C397.353 76.4316 397.14 76.5944 396.892 76.6749C396.644 76.7553 396.375 76.7485 396.131 76.6555C395.826 76.4497 395.614 76.1319 395.541 75.771L395.062 73.7809C395.078 73.7081 395.078 73.6327 395.062 73.5598C394.901 74.0593 394.568 74.4854 394.122 74.7622C393.676 75.039 393.146 75.1484 392.627 75.0708H391.852C392.406 78.0928 394.619 89.628 394.619 89.628C394.635 89.7007 394.636 89.7759 394.623 89.8491C394.609 89.9223 394.58 89.9919 394.539 90.0539C394.498 90.1158 394.444 90.1688 394.382 90.2096C394.32 90.2504 394.25 90.2782 394.176 90.2914L394.213 90.0702Z" fill="#4385F5"/>
</g>
<defs>
<linearGradient id="paint0_linear_15:112" x1="169.458" y1="235.347" x2="148.728" y2="515.695" gradientUnits="userSpaceOnUse">
<stop offset="0.01"/>
<stop offset="0.08" stop-opacity="0.69"/>
<stop offset="0.21" stop-opacity="0.32"/>
<stop offset="1" stop-opacity="0"/>
</linearGradient>
<linearGradient id="paint1_linear_15:112" x1="22141.6" y1="2999.84" x2="22103.7" y2="5614.08" gradientUnits="userSpaceOnUse">
<stop offset="0.01"/>
<stop offset="0.08" stop-opacity="0.69"/>
<stop offset="0.21" stop-opacity="0.32"/>
<stop offset="1" stop-opacity="0"/>
</linearGradient>
<linearGradient id="paint2_linear_15:112" x1="-122511" y1="131162" x2="-120409" y2="133314" gradientUnits="userSpaceOnUse">
<stop offset="0.01"/>
<stop offset="0.08" stop-opacity="0.69"/>
<stop offset="0.21" stop-opacity="0.32"/>
<stop offset="1" stop-opacity="0"/>
</linearGradient>
<linearGradient id="paint3_linear_15:112" x1="3378.14" y1="-11747.8" x2="5824.92" y2="-10324.5" gradientUnits="userSpaceOnUse">
<stop offset="0.01"/>
<stop offset="0.08" stop-opacity="0.69"/>
<stop offset="0.21" stop-opacity="0.32"/>
<stop offset="1" stop-opacity="0"/>
</linearGradient>
<linearGradient id="paint4_linear_15:112" x1="3536.47" y1="-16232.1" x2="6280.29" y2="-15022.7" gradientUnits="userSpaceOnUse">
<stop offset="0.01"/>
<stop offset="0.08" stop-opacity="0.69"/>
<stop offset="0.21" stop-opacity="0.32"/>
<stop offset="1" stop-opacity="0"/>
</linearGradient>
<linearGradient id="paint5_linear_15:112" x1="-693.183" y1="9150.69" x2="-500.145" y2="9820.73" gradientUnits="userSpaceOnUse">
<stop offset="0.01"/>
<stop offset="0.08" stop-opacity="0.69"/>
<stop offset="0.21" stop-opacity="0.32"/>
<stop offset="1" stop-opacity="0"/>
</linearGradient>
<linearGradient id="paint6_linear_15:112" x1="330.792" y1="233.738" x2="238.899" y2="246.183" gradientUnits="userSpaceOnUse">
<stop offset="0.01"/>
<stop offset="0.13" stop-opacity="0.69"/>
<stop offset="0.25" stop-opacity="0.32"/>
<stop offset="1" stop-opacity="0"/>
</linearGradient>
<linearGradient id="paint7_linear_15:112" x1="-58384.1" y1="78725.9" x2="-57017.6" y2="79014.6" gradientUnits="userSpaceOnUse">
<stop offset="0.01"/>
<stop offset="0.13" stop-opacity="0.69"/>
<stop offset="0.25" stop-opacity="0.32"/>
<stop offset="1" stop-opacity="0"/>
</linearGradient>
<linearGradient id="paint8_linear_15:112" x1="397.164" y1="103.264" x2="399.005" y2="45.1456" gradientUnits="userSpaceOnUse">
<stop offset="0.01" stop-color="white"/>
<stop offset="1" stop-color="white" stop-opacity="0"/>
</linearGradient>
<linearGradient id="paint9_linear_15:112" x1="3426.74" y1="1455.83" x2="3181.2" y2="1306.69" gradientUnits="userSpaceOnUse">
<stop offset="0.01" stop-color="white"/>
<stop offset="1" stop-color="white" stop-opacity="0"/>
</linearGradient>
<clipPath id="clip0_15:112">
<rect width="583" height="439" fill="white"/>
</clipPath>
</defs>
</svg>
