<svg width="622" height="469" viewBox="0 0 622 469" fill="none" xmlns="http://www.w3.org/2000/svg">
<g clip-path="url(#clip0_15:2)">
<path opacity="0.18" d="M375.439 9.41614C399.298 14.5664 423.107 21.8412 443.523 35.1676C499.025 71.5093 518.186 143.517 562.331 193.04C581.636 214.639 606.298 232.939 616.514 260.01C624.638 281.513 622.306 305.429 618.589 328.107C615.159 349.037 610.66 369.778 605.108 390.248C601.697 402.834 597.788 415.517 590.484 426.3C568.589 458.634 523.945 464.766 484.9 464.38C444.982 463.983 405.183 459.948 365.996 452.325C346.369 448.495 326.822 443.763 306.874 442.346C263.549 439.305 220.917 452.003 178.172 459.471C135.427 466.939 88.5469 468.549 51.5451 445.839C37.3736 436.993 25.4084 425.026 16.562 410.851C7.71553 396.677 2.22147 380.668 0.498761 364.046C-1.80178 339.823 4.1185 315.617 10.4892 292.119C18.694 261.797 27.7138 231.705 37.5488 201.844C45.1261 178.812 53.2826 155.765 65.7345 134.955C121.43 41.9435 273.781 -12.5692 375.439 9.41614Z" fill="#4385F5"/>
<path d="M185.17 351.476C200.121 353.783 215.034 356.278 229.91 358.96C239.723 360.73 249.778 362.678 258.24 367.941C261.168 369.759 264 372.27 264.418 375.65C264.885 379.4 262.037 382.909 258.61 384.486C255.069 385.814 251.283 386.363 247.51 386.096L149.729 386.691C129.008 386.82 106.42 386.321 90.3648 373.204C87.6272 371.224 85.5253 368.489 84.3158 365.333C83.7445 363.75 83.6841 362.027 84.143 360.407C84.6018 358.788 85.5569 357.353 86.8738 356.304C88.7171 355.294 90.7887 354.773 92.8906 354.791L137.116 351.363" fill="url(#paint0_linear_15:2)"/>
<path d="M169.967 343.686C178.22 341.819 176.595 353.504 178.767 357.849C180.136 360.058 181.853 362.031 183.851 363.692C185.875 365.359 187.202 367.725 187.567 370.323C187.608 370.808 187.507 371.294 187.277 371.723C186.877 372.234 186.306 372.583 185.669 372.705C180.969 374.088 175.917 373.591 171.576 371.321C169.544 370.356 167.858 368.788 166.749 366.83C165.845 364.735 165.416 362.464 165.495 360.183C165.35 355.307 163.114 345.215 169.967 343.686Z" fill="#FDB9A9"/>
<path d="M177.255 367.748C177.255 367.748 200.694 368.746 190.768 376.101C180.842 383.456 166.025 374.314 164.578 372.624C163.13 370.935 164.32 368.07 164.32 368.07L177.255 367.748Z" fill="#4385F5"/>
<path d="M165.607 370.983C167.698 373.526 178.702 376.938 183.577 376.6C188.452 376.262 192.827 373.976 192.345 370.822C191.862 367.667 183.255 360.328 181.647 360.36C180.038 360.392 178.735 364.11 175.485 364.899C174.03 365.136 172.538 364.999 171.151 364.501C169.763 364.003 168.525 363.159 167.554 362.05C167.256 361.646 166.827 361.356 166.341 361.23C165.855 361.104 165.34 361.149 164.883 361.358C164.218 362.902 163.937 364.583 164.063 366.259C164.189 367.935 164.719 369.556 165.607 370.983Z" fill="white"/>
<path d="M141.717 348.305C149.97 346.39 148.345 358.059 150.517 362.404C151.868 364.626 153.587 366.602 155.601 368.247C157.627 369.917 158.948 372.291 159.301 374.894C159.348 375.377 159.253 375.864 159.027 376.294C158.627 376.805 158.056 377.154 157.419 377.276C152.712 378.643 147.661 378.147 143.31 375.892C141.289 374.91 139.608 373.346 138.483 371.401C137.579 369.306 137.15 367.035 137.228 364.754C137.019 359.829 134.863 349.77 141.717 348.305Z" fill="#FDB9A9"/>
<path d="M149.005 372.238C149.005 372.238 172.444 373.236 162.518 380.607C152.592 387.979 137.775 378.821 136.392 377.131C135.008 375.441 136.118 372.576 136.118 372.576L149.005 372.238Z" fill="#4385F5"/>
<path d="M137.357 375.441C139.448 378 150.452 381.412 155.327 381.058C160.202 380.704 164.577 378.451 164.095 375.296C163.612 372.142 155.005 364.802 153.396 364.819C151.788 364.835 150.485 368.585 147.235 369.357C145.776 369.587 144.282 369.442 142.895 368.935C141.507 368.429 140.271 367.577 139.304 366.46C139.003 366.058 138.574 365.772 138.088 365.649C137.602 365.526 137.088 365.574 136.633 365.784C135.96 367.331 135.674 369.02 135.801 370.702C135.927 372.385 136.461 374.011 137.357 375.441Z" fill="white"/>
<path d="M162.953 241.952L151.949 357.833L136.07 355.87C129.796 327.575 131.34 242.95 131.34 242.95L162.953 241.952Z" fill="#473F47"/>
<path d="M151.949 238.813L162.953 354.695L178.863 352.731C187.953 279.372 180.472 233.711 180.472 233.711L151.949 238.813Z" fill="#473F47"/>
<path d="M179.056 196.887C179.266 194.762 179.829 192.654 180.054 190.449C180.572 186.075 180.485 181.65 179.796 177.3C179.052 172.664 177.661 168.156 175.662 163.909C173.828 160.239 170.514 158.678 166.798 156.843C163.682 155.158 160.304 154.01 156.807 153.447C154.339 153.219 151.851 153.354 149.423 153.85C141.942 155.282 132.08 159.145 126.9 165.116C123.071 169.558 122.621 175.899 122.492 181.774C122.331 189.821 122.492 197.965 122.991 206.061C122.991 207.236 123.135 208.411 123.232 209.569C123.908 218.454 124.648 227.66 127.173 236.238C127.962 238.926 128.782 241.63 131.292 243.062C137.132 246.474 146.093 244.591 152.415 243.722C160.813 242.531 169.42 241.276 176.869 237.204C178.411 236.53 179.662 235.325 180.392 233.808C181.051 231.973 180.263 230.01 179.7 228.143C177.174 219.87 179.121 211.163 179.121 202.713C179.121 201.184 178.928 199.607 178.928 198.078C179.009 197.686 179.052 197.287 179.056 196.887Z" fill="white"/>
<path opacity="0.1" d="M164.031 161.237C164.141 164.085 164.033 166.936 163.709 169.767C163.709 172.375 163.95 174.966 163.821 177.557C163.582 181.954 162.061 186.184 159.446 189.725L180.038 185.395C180.463 185.36 180.856 185.157 181.132 184.832C181.28 184.454 181.28 184.035 181.132 183.657L179.346 175.61C178.724 171.578 177.331 167.703 175.244 164.199C172.93 161.144 169.932 158.675 166.492 156.988C165.72 156.586 163.097 154.687 162.357 155.958C162.132 156.505 163.918 160.288 164.031 161.237Z" fill="#020202"/>
<path d="M174.52 181.371C175.549 180.729 176.722 180.354 177.933 180.28C179.145 180.207 180.355 180.439 181.454 180.953C182.534 181.5 183.445 182.332 184.089 183.358C184.732 184.385 185.084 185.568 185.105 186.779C185.004 188.428 184.447 190.016 183.497 191.366C182.995 192.267 182.303 193.047 181.47 193.652C180.143 194.438 178.592 194.761 177.062 194.569C175.69 194.504 174.349 194.136 173.136 193.491C171.334 192.477 168.986 189.58 169.597 187.31C170.612 184.886 172.326 182.819 174.52 181.371Z" fill="#FDB9A9"/>
<path opacity="0.1" d="M145.771 235.321C147.014 232.153 147.647 228.778 147.637 225.374C147.423 222.152 146.933 218.953 146.173 215.814L140.816 190.256C139.835 185.572 137.711 162.895 130.568 165.55C128.567 166.401 126.778 167.683 125.329 169.305C123.88 170.927 122.807 172.849 122.186 174.934C120.966 179.111 120.46 183.464 120.69 187.809C120.819 199.076 123.055 210.599 124.503 221.785C125.05 226.018 125.71 241.743 131.308 243.127C132.402 243.416 133.48 243.964 134.526 244.157C136.408 244.495 142.055 246.748 144.516 246.008C144.718 245.96 144.908 245.871 145.074 245.746C145.24 245.621 145.379 245.464 145.481 245.283C146.929 242.435 144.597 236.834 144.597 233.631C144.849 228.414 146.967 223.462 150.565 219.677C154.511 215.602 158.992 212.082 163.886 209.215L170.466 204.95C171.53 204.115 172.817 203.611 174.166 203.502C175.078 203.676 176.004 203.762 176.933 203.759C178.365 203.518 179.217 202.037 179.732 200.685C181.005 197.434 181.597 193.955 181.47 190.465C181.488 190.239 181.459 190.013 181.385 189.799C181.31 189.585 181.191 189.39 181.035 189.226C180.805 189.104 180.548 189.041 180.287 189.041C180.027 189.041 179.77 189.104 179.539 189.226L158.85 195.664C155.788 196.889 152.484 197.384 149.198 197.112C145.98 196.581 142.763 194.038 142.763 190.771" fill="#020202"/>
<path d="M124.873 167.385C118.084 178.651 115.719 191.913 113.483 204.854C113.097 206.434 113.032 208.076 113.29 209.682C113.71 211.105 114.496 212.393 115.568 213.418C116.641 214.443 117.963 215.169 119.403 215.524C122.291 216.202 125.276 216.36 128.219 215.991C134.558 215.573 142.039 215.025 147.412 211.372C149.246 210.117 150.887 208.555 152.769 207.348C154.601 206.266 156.503 205.309 158.464 204.483C162.213 202.743 165.79 200.652 169.146 198.239C170.306 197.53 171.273 196.546 171.962 195.374C173.056 193.201 172.203 190.545 171.334 188.308C171.301 188.047 171.216 187.794 171.084 187.566C170.952 187.338 170.777 187.137 170.567 186.977C170.358 186.817 170.119 186.7 169.864 186.633C169.609 186.566 169.343 186.55 169.082 186.586C168.79 186.617 168.508 186.716 168.262 186.876C159.21 189.561 149.987 191.625 140.655 193.056C138.081 193.442 139.207 190.642 139.545 189.177C140.092 187.133 140.542 185.073 140.896 182.981C141.228 179.959 140.814 176.902 139.692 174.077C138.571 171.252 136.775 168.744 134.461 166.774C133.272 165.66 131.765 164.945 130.15 164.73C129.133 164.777 128.138 165.038 127.229 165.496C126.32 165.953 125.517 166.597 124.873 167.385Z" fill="white"/>
<path d="M162.92 141.827C162.9 139.606 162.766 137.387 162.518 135.18C162.309 133.249 162.003 131.301 161.617 129.402C161.603 128.836 161.464 128.281 161.211 127.774C160.958 127.268 160.597 126.824 160.153 126.473C157.178 124.636 153.739 123.692 150.243 123.753C148.173 123.468 146.073 124.001 144.388 125.239C142.703 126.477 141.567 128.322 141.218 130.384C141.154 130.799 141.122 131.219 141.122 131.639C140.591 136.467 141.862 141.296 142.57 146.205C143.113 149.934 143.313 153.705 143.165 157.471C144.99 158.692 147.091 159.439 149.278 159.644C150.301 159.64 151.317 159.472 152.286 159.145C152.827 159.029 153.305 158.713 153.622 158.26C153.771 157.859 153.81 157.425 153.734 157.004C153.673 156.61 153.635 156.212 153.622 155.813C153.463 153.593 153.506 151.363 153.75 149.15C153.752 148.966 153.821 148.788 153.944 148.651C154.095 148.603 154.258 148.603 154.41 148.651H155.021C156.123 148.764 157.234 148.764 158.335 148.651C159.661 148.521 160.892 147.908 161.794 146.929C162.797 145.43 163.199 143.609 162.92 141.827Z" fill="#FDB9A9"/>
<path d="M160.523 142.149C160.298 141.795 159.944 141.392 159.558 141.521C159.172 141.65 159.14 141.94 159.027 142.229C158.6 143.418 157.945 144.512 157.097 145.448C156.602 146.024 156.064 146.562 155.488 147.058L154.394 148.023C155.383 148.39 156.416 148.623 157.467 148.715C157.99 148.757 158.515 148.69 159.011 148.518C159.507 148.347 159.961 148.074 160.346 147.718C160.769 147.243 161.107 146.698 161.344 146.108C161.647 145.567 161.859 144.98 161.971 144.37C162.01 144.078 161.981 143.78 161.886 143.501C161.791 143.222 161.633 142.968 161.424 142.76" fill="#DE9F93"/>
<path d="M158.48 127.326C160.298 126.891 162.904 126.698 163.821 124.976C164.142 124.128 164.18 123.199 163.927 122.328C163.675 121.457 163.146 120.692 162.422 120.147C161.161 118.867 159.613 117.906 157.906 117.346C156.198 116.786 154.382 116.643 152.608 116.928C151.506 117.201 150.388 117.411 149.262 117.556C147.75 117.637 146.27 117.186 144.757 117.138C142.094 117.203 139.533 118.18 137.502 119.906C136.21 121.168 134.754 122.251 133.174 123.125C132.377 123.524 131.47 123.646 130.595 123.471C129.721 123.296 128.93 122.835 128.348 122.159C128.04 123.22 127.966 124.334 128.13 125.426C128.293 126.518 128.692 127.561 129.297 128.484C128.99 128.791 128.585 128.98 128.153 129.019C127.72 129.057 127.288 128.942 126.932 128.694C127.029 131.273 127.624 133.809 128.686 136.162C127.718 136.245 126.743 136.191 125.79 136.001C126.324 137.301 127.109 138.484 128.1 139.481C129.091 140.477 130.269 141.269 131.566 141.811C135.105 143.275 139.046 143.42 141.636 146.478C141.958 146.865 142.28 147.782 142.827 147.878C143.374 147.975 143.76 147.396 143.921 146.881C144.531 144.689 144.372 142.354 143.47 140.266C142.845 139.242 142.475 138.083 142.393 136.886C142.505 135.695 144.114 134.761 144.886 135.47C145.658 136.178 145.787 137.868 146.736 137.53C145.658 134.15 147.058 129.901 150.324 128.565C152.817 127.567 155.568 128.163 158.11 127.422L158.48 127.326Z" fill="#DD8049"/>
<path d="M154.925 148.651C152.36 148.177 149.852 147.432 147.444 146.43C147.219 154.252 153.574 155.878 153.574 155.878C153.415 153.657 153.458 151.427 153.702 149.214C153.704 149.03 153.772 148.853 153.895 148.715C154.047 148.667 154.21 148.667 154.362 148.715H154.925V148.651Z" fill="#DE9F93"/>
<path d="M288.373 225.761C322.091 225.761 349.425 198.415 349.425 164.681C349.425 130.948 322.091 103.602 288.373 103.602C254.654 103.602 227.32 130.948 227.32 164.681C227.32 198.415 254.654 225.761 288.373 225.761Z" fill="white"/>
<path d="M471.789 375.892C462.136 379.111 452.821 383.633 453.079 388.236C453.368 393.387 413.825 394.304 409.948 393.773C410.672 392.163 410.06 389.476 410.736 387.882C396.244 384.47 381.988 380.126 368.055 374.878C349.699 368.037 327.836 367.072 308.531 365.221C265.431 361.036 221.319 361.825 179.41 373.751C170.293 376.162 161.471 379.579 153.107 383.939C150.667 385.015 148.605 386.798 147.187 389.057C144.838 393.628 147.911 399.165 151.756 402.56C157.692 407.823 165.414 410.608 173.056 412.765C198.088 419.94 224.227 422.439 250.164 420.136C261.426 419.138 272.928 417.223 284.125 419.138C295.322 421.053 305.474 426.638 316.43 429.535C327.385 432.432 340.561 431.982 348.219 423.709C350.133 421.649 351.694 419.138 354.155 417.786C357.228 416.08 361.009 416.563 364.516 417.046C397.292 421.594 430.521 421.832 463.359 417.754C466.046 417.416 469.006 416.901 470.679 414.76C471.918 413.151 472.175 410.93 473.526 409.417C475.328 407.373 478.353 407.26 481.136 407.276C497.344 407.355 513.539 406.328 529.608 404.202C533.855 403.639 538.247 402.947 541.819 400.565C545.39 398.183 547.868 393.628 546.516 389.556C545.457 387.063 543.675 384.944 541.4 383.472C527.372 372.785 508.984 368.617 491.528 370.87C484.827 372.025 478.227 373.704 471.789 375.892Z" fill="url(#paint1_linear_15:2)"/>
<path d="M296.497 379.03C296.497 382.764 309.238 385.79 324.956 385.79C340.674 385.79 353.399 382.764 353.399 379.03C353.512 377.627 353.512 376.217 353.399 374.813C351.372 371.594 339.242 372.254 324.956 372.254C311.201 372.254 299.216 371.723 296.497 374.813C296.328 376.214 296.328 377.63 296.497 379.03Z" fill="#4385F5"/>
<path d="M324.956 381.589C340.665 381.589 353.399 378.555 353.399 374.813C353.399 371.071 340.665 368.037 324.956 368.037C309.247 368.037 296.513 371.071 296.513 374.813C296.513 378.555 309.247 381.589 324.956 381.589Z" fill="#4385F5"/>
<path d="M324.956 381.589C340.665 381.589 353.399 378.555 353.399 374.813C353.399 371.071 340.665 368.037 324.956 368.037C309.247 368.037 296.513 371.071 296.513 374.813C296.513 378.555 309.247 381.589 324.956 381.589Z" fill="url(#paint2_linear_15:2)"/>
<path d="M483.324 389.379C499.032 389.379 511.767 386.345 511.767 382.603C511.767 378.861 499.032 375.827 483.324 375.827C467.615 375.827 454.881 378.861 454.881 382.603C454.881 386.345 467.615 389.379 483.324 389.379Z" fill="#4C506D"/>
<path d="M328.222 311.255H321.626V375.28H328.222V311.255Z" fill="#4385F5"/>
<path d="M328.222 311.255H321.626V333.37H328.222V311.255Z" fill="url(#paint3_linear_15:2)"/>
<path d="M407.148 371.61V381.364H372.27C372.27 381.364 374.313 373.88 388.133 371.61L392.653 367.925L407.148 371.61Z" fill="#4385F5"/>
<path d="M407.148 371.61V381.364H372.27C372.27 381.364 374.313 373.88 388.133 371.61L392.653 367.925L407.148 371.61Z" fill="url(#paint4_linear_15:2)"/>
<path d="M408.741 381.348H371.144V383.842H408.741V381.348Z" fill="#4385F5"/>
<path d="M486.075 326.368H480.605V376.906H486.075V326.368Z" fill="#4C506D"/>
<path d="M454.929 382.555C454.929 386.289 467.67 389.331 483.372 389.331C499.074 389.331 511.831 386.289 511.831 382.555C511.928 381.151 511.928 379.742 511.831 378.338C509.804 375.119 497.674 375.779 483.372 375.779C469.633 375.779 457.632 375.248 454.929 378.338C454.752 379.738 454.752 381.155 454.929 382.555Z" fill="#2F3554"/>
<path d="M483.324 385.162C499.032 385.162 511.767 382.129 511.767 378.386C511.767 374.644 499.032 371.61 483.324 371.61C467.615 371.61 454.881 374.644 454.881 378.386C454.881 382.129 467.615 385.162 483.324 385.162Z" fill="#4C506D"/>
<path d="M474.652 317.162H521.709L532.97 256.002C533.318 254.09 532.893 252.119 531.789 250.519C530.685 248.92 528.993 247.824 527.082 247.472C526.631 247.394 526.173 247.356 525.715 247.36H493.539C491.829 247.36 490.172 247.959 488.856 249.052C487.54 250.146 486.647 251.665 486.332 253.347L474.652 317.162Z" fill="#4C506D"/>
<path d="M462.12 317.162H509.177L520.438 256.002C520.786 254.09 520.361 252.119 519.257 250.519C518.153 248.92 516.46 247.824 514.55 247.472C514.115 247.394 513.673 247.356 513.231 247.36H481.055C479.345 247.36 477.688 247.959 476.372 249.052C475.056 250.146 474.163 251.665 473.848 253.347L462.12 317.162Z" fill="#2F3554"/>
<path d="M512.796 307.94H478.884C473.792 307.94 469.665 312.069 469.665 317.162C469.665 322.255 473.792 326.384 478.884 326.384H512.796C517.888 326.384 522.015 322.255 522.015 317.162C522.015 312.069 517.888 307.94 512.796 307.94Z" fill="#4C506D"/>
<path d="M492.076 307.94H458.163C453.072 307.94 448.944 312.069 448.944 317.162C448.944 322.255 453.072 326.384 458.163 326.384H492.076C497.167 326.384 501.294 322.255 501.294 317.162C501.294 312.069 497.167 307.94 492.076 307.94Z" fill="#2F3554"/>
<path d="M499.235 231.008C498.896 230.602 498.537 230.215 498.157 229.849C492.655 224.57 483.678 225.133 478.079 225.294C473.104 225.519 468.119 225.374 463.166 224.859L461.026 224.602H460.318C456.602 224.199 452.146 224.232 450.907 228.078C449.459 232.665 449.298 238.154 448.639 242.918C446.644 257.145 445.534 271.019 444.938 285.279C444.375 297.881 461.123 298.879 470.116 298.879C473.166 298.954 476.218 298.771 479.237 298.331C482.005 297.865 484.514 296.722 487.281 296.207C488.717 296.059 490.08 295.5 491.207 294.598C492.735 293.117 492.735 290.687 492.735 288.562C492.683 283.136 493.125 277.717 494.054 272.371C494.553 269.715 495.325 267.124 495.792 264.484C496.317 262.327 497.05 260.225 497.98 258.208C501.792 248.567 504.801 237.703 499.235 231.008Z" fill="white"/>
<path d="M431.618 232.295C431.941 231.074 432.487 229.923 433.227 228.899C434.964 226.726 438.053 226.259 440.82 226.05C442.123 225.938 443.684 226.05 444.311 227.161C444.6 227.795 444.684 228.504 444.552 229.189C444.156 231.55 443.951 233.94 443.941 236.335C445.761 235.177 447.739 234.288 449.813 233.695C450.36 233.518 455.91 232.89 455.991 233.695C456.296 237.139 456.425 240.6 456.425 244.044C456.542 245.297 456.407 246.56 456.029 247.759C455.65 248.959 455.035 250.071 454.221 251.029C451.287 255.141 448.01 258.996 444.424 262.553C440.574 266.387 435.376 268.559 429.945 268.605C429.102 268.737 428.24 268.66 427.434 268.379C426.629 268.098 425.905 267.623 425.327 266.995C424.815 266.062 424.586 264.999 424.668 263.937C424.681 260.897 424.929 257.862 425.408 254.86C426.813 247.171 428.891 239.62 431.618 232.295Z" fill="white"/>
<path d="M436.235 238.926C436.508 236.93 436.235 232.263 437.844 231.024L438.133 230.863C438.485 230.693 438.866 230.596 439.256 230.574C439.645 230.553 440.035 230.609 440.403 230.74C440.771 230.87 441.109 231.071 441.399 231.333C441.689 231.594 441.924 231.91 442.091 232.263C442.336 233.126 442.391 234.032 442.252 234.918C442.11 237.065 442.169 239.221 442.429 241.356C442.59 242.644 443.008 244.157 444.247 244.575C444.693 244.682 445.156 244.698 445.609 244.623C446.062 244.549 446.496 244.385 446.885 244.141C449.057 243.093 451.08 241.762 452.902 240.181C453.304 239.843 453.819 239.457 454.317 239.634C454.618 239.781 454.865 240.017 455.025 240.31L468.282 260.783C469.392 262.505 470.389 265.08 469.134 266.448C467.879 267.816 465.563 267.349 463.825 266.593C458.711 264.351 454.124 261.062 450.36 256.936C450.1 256.597 449.748 256.34 449.346 256.196C449.065 256.187 448.784 256.235 448.521 256.337C448.259 256.44 448.02 256.594 447.818 256.791C445.417 258.578 442.847 260.125 440.144 261.41C438.133 262.328 435.318 263.02 434.063 261.088C433.549 260.044 433.429 258.85 433.725 257.725L436.235 238.926Z" fill="#D8DAE1"/>
<path d="M485.029 244.141C485.98 241.681 487.548 239.509 489.582 237.832C490.61 236.997 491.858 236.479 493.175 236.342C494.492 236.205 495.821 236.454 496.998 237.059C500.119 238.958 500.377 243.32 499.975 246.957C499.416 252.121 498.282 257.206 496.596 262.118C495.76 264.549 494.408 266.947 493.668 269.345C493.073 271.325 492.992 273.449 492.381 275.525C490.843 280.673 490.01 286.006 489.904 291.379C489.937 292.083 489.817 292.786 489.55 293.439C489.403 293.759 489.149 294.017 488.832 294.17C488.514 294.323 488.154 294.36 487.812 294.276C487.409 294.083 487.073 293.775 486.847 293.39C483.469 289.029 477.564 287.596 472.095 286.952C465.659 286.164 459.224 286.019 452.709 285.633C450.054 285.472 446.772 284.683 446.354 282.092C446.292 281.34 446.441 280.586 446.785 279.915C447.129 279.243 447.654 278.682 448.301 278.294C449.614 277.541 451.063 277.054 452.564 276.861C458.323 275.783 464.356 274.881 469.15 271.518C467.412 271.006 465.807 270.115 464.453 268.91C467.542 270.938 472.497 264.323 474.717 262.633C476.681 261.067 478.32 259.131 479.543 256.936C481.763 253.025 483.163 248.357 485.029 244.141Z" fill="#D8DAE1"/>
<path d="M468.298 228.947C469 228.786 469.737 228.883 470.373 229.221C471.006 229.56 471.714 229.737 472.432 229.736C472.469 229.79 472.496 229.85 472.513 229.913C472.719 230.354 472.837 230.831 472.859 231.317C472.88 231.803 472.806 232.288 472.641 232.746C472.475 233.203 472.22 233.624 471.892 233.982C471.564 234.341 471.168 234.632 470.727 234.838C470.336 234.974 469.963 235.158 469.617 235.385C469.362 235.7 469.176 236.064 469.071 236.455C468.966 236.846 468.943 237.255 469.006 237.655C469.134 244.334 467.172 250.852 465.627 257.354C463.809 264.919 462.554 272.773 463.713 280.482C463.793 280.892 463.793 281.313 463.713 281.722C463.581 282.003 463.401 282.259 463.182 282.478L459.755 286.325C458.742 284.715 456.409 284.216 455.862 282.43C455.729 281.904 455.691 281.359 455.749 280.82C456.358 273.632 457.601 266.512 459.466 259.543C461.188 251.57 463.49 243.732 466.351 236.093C466.496 235.816 466.558 235.503 466.528 235.192C466.462 234.936 466.348 234.696 466.19 234.484C465.241 232.874 466.786 229.527 468.298 228.947Z" fill="#4385F5"/>
<path d="M485.721 225.229C480.895 224.795 476.149 224.505 471.371 224.344C468.153 224.248 464.002 223.411 461.042 224.65C461.76 224.687 462.475 224.773 463.182 224.908C468.136 225.406 473.12 225.551 478.095 225.342C483.71 225.165 492.671 224.602 498.189 229.881C495.245 226.437 490.322 225.632 485.721 225.229Z" fill="white"/>
<path d="M481.57 210.809C481.788 211.001 482.06 211.12 482.349 211.149C482.637 211.178 482.928 211.115 483.179 210.97C482.503 214.623 481.94 217.826 483.645 221.415C484.272 222.958 485.471 224.198 486.992 224.875C483.809 225.535 480.715 226.566 477.773 227.95C475.872 228.787 473.818 229.22 471.741 229.221C471.531 229.221 467.863 228.4 468.41 227.612C471.322 223.33 468.99 216.233 468.99 216.233C471.423 216.947 474.037 216.72 476.311 215.596C478.585 214.472 480.353 212.533 481.264 210.165C481.299 210.405 481.406 210.63 481.57 210.809Z" fill="#8C6239"/>
<path d="M478.433 183.544C478.433 183.544 458.677 182.16 458.307 195.905C458.228 198.752 458.482 201.599 459.063 204.387C459.256 205.369 459.498 206.318 459.771 207.236C462.313 215.621 467.928 221.286 474.797 219.258C486.783 215.75 494.424 187.133 478.433 183.544Z" fill="#A67C52"/>
<path d="M484.08 206.833C484.819 206.147 485.293 205.223 485.419 204.223C485.546 203.222 485.316 202.209 484.772 201.361C484.597 201.085 484.367 200.85 484.096 200.669C483.754 200.494 483.373 200.412 482.989 200.429C482.606 200.445 482.233 200.562 481.908 200.766C481.377 201.055 480.669 202.134 480.01 201.458C479.854 201.264 479.745 201.036 479.692 200.793C479.639 200.55 479.643 200.299 479.704 200.057C479.867 198.721 480.427 197.465 481.313 196.452C480.794 196.281 480.321 195.994 479.93 195.612C479.54 195.229 479.242 194.763 479.06 194.247C477.236 194.625 475.367 194.739 473.51 194.585C473.066 194.579 472.628 194.48 472.223 194.295C471.274 193.829 470.888 192.686 470.035 192.026C468.841 191.448 467.494 191.268 466.19 191.511C464.871 191.511 463.246 191.028 463.053 189.725C461.877 190.218 460.554 190.226 459.372 189.746C458.191 189.267 457.247 188.339 456.747 187.166C456.135 187.396 455.477 187.476 454.828 187.401C454.179 187.325 453.557 187.096 453.014 186.731C452.664 186.259 452.432 185.711 452.337 185.132C452.242 184.552 452.287 183.958 452.467 183.399C452.934 180.937 454.076 178.297 456.425 177.412C455.058 176.688 455.074 174.757 455.283 173.228C455.301 172.782 455.423 172.347 455.637 171.956C456.28 170.91 457.76 170.942 458.854 170.524C459.948 170.105 460.833 169.236 461.911 168.721C462.989 168.206 464.533 168.254 465.048 169.317C466.46 168.48 468.024 167.933 469.649 167.707C470.462 167.608 471.285 167.743 472.023 168.097C472.762 168.45 473.383 169.008 473.816 169.703C474.617 169.251 475.506 168.977 476.422 168.898C476.882 168.87 477.338 168.99 477.726 169.238C478.113 169.487 478.412 169.853 478.578 170.282C478.572 170.385 478.593 170.488 478.638 170.581C478.683 170.674 478.751 170.754 478.835 170.813C478.921 170.861 479.018 170.886 479.117 170.886C479.215 170.886 479.312 170.861 479.398 170.813C480.666 170.327 482.052 170.237 483.372 170.556C484.024 170.73 484.611 171.094 485.057 171.601C485.504 172.108 485.79 172.735 485.882 173.405C487.447 173.857 488.889 174.66 490.097 175.754C490.748 176.219 491.247 176.865 491.533 177.612C491.82 178.359 491.879 179.174 491.705 179.955C492.745 181.02 493.351 182.435 493.404 183.923C493.458 185.411 492.956 186.865 491.995 188.002C492.291 188.142 492.534 188.375 492.685 188.666C492.836 188.957 492.887 189.289 492.832 189.612C492.708 190.26 492.438 190.87 492.043 191.398C491.913 191.565 491.835 191.767 491.818 191.978C491.818 192.235 492.108 192.428 492.301 192.606C492.775 193.112 493.03 193.786 493.009 194.48C492.988 195.174 492.693 195.831 492.188 196.307C492.002 196.495 491.784 196.647 491.545 196.758C491.972 197.081 492.324 197.493 492.577 197.965C492.83 198.438 492.977 198.959 493.009 199.494C493.009 199.757 492.95 200.017 492.838 200.255C492.726 200.494 492.563 200.704 492.36 200.872C492.157 201.039 491.919 201.16 491.664 201.225C491.41 201.29 491.143 201.298 490.885 201.248C491.113 201.847 491.184 202.494 491.091 203.128C490.998 203.762 490.744 204.362 490.354 204.87C489.373 206.125 488.327 205.707 487.136 206.254C485.946 206.801 485.399 208.571 484.579 209.473C484.498 208.571 484.305 207.702 484.08 206.833Z" fill="#2F3554"/>
<path d="M442.332 288.449L415.24 302.339L392.718 367.522L406.312 375.892L432.969 321.781C432.969 321.781 457.841 314.201 464.565 311.996C471.29 309.791 479.656 288.868 479.656 288.868C449.266 288.659 442.332 288.449 442.332 288.449Z" fill="#2F3554"/>
<path d="M463.809 290.654L436.734 304.544L417.798 380.656L432.277 384.341L454.446 323.954C454.446 323.954 479.302 316.374 486.027 314.169C492.751 311.964 491.175 292.891 491.175 292.891C479.543 284.925 463.809 290.654 463.809 290.654Z" fill="#4C506D"/>
<path d="M491.126 228.304C486.895 227.29 476.454 249.468 476.454 249.468L459.611 232.536L449.572 236.319C449.572 236.319 464.63 273.336 477.146 269.828C489.662 266.319 501.455 239.795 501.455 239.795C503.047 235.24 495.374 229.317 491.126 228.304Z" fill="white"/>
<path d="M440.225 216.78C439.035 217.811 438.071 219.076 437.393 220.498C436.645 221.983 436.052 223.542 435.624 225.149C435.221 226.383 435.078 227.688 435.205 228.98C435.274 229.621 435.492 230.237 435.841 230.779C436.19 231.321 436.661 231.774 437.216 232.102C438.074 232.438 439.016 232.493 439.906 232.259C440.797 232.024 441.59 231.513 442.171 230.798C443.28 229.324 444.009 227.599 444.295 225.777C444.548 223.953 445.091 222.182 445.904 220.53C446.581 219.737 447.012 218.764 447.143 217.729C446.772 214.092 441.946 215.363 440.225 216.78Z" fill="#8C6239"/>
<path d="M456.731 230.138C457.503 234.033 453.24 235.594 449.974 234.838C448.99 234.646 448.065 234.228 447.271 233.615C445.389 232.118 444.794 229.543 443.555 227.483C442.686 226.034 441.48 224.827 440.627 223.379C440.142 222.681 439.844 221.872 439.759 221.027C439.675 220.182 439.807 219.33 440.144 218.55C441.206 216.619 443.796 216.216 446.016 216.216C447.153 216.104 448.3 216.264 449.363 216.683C450.485 217.307 451.41 218.232 452.033 219.355C454.205 222.653 455.794 226.301 456.731 230.138Z" fill="#A67C52"/>
<path d="M163.451 294.372C163.451 308.133 233.224 319.303 319.293 319.303C405.363 319.303 475.119 308.133 475.119 294.372C475.119 293.793 475.36 286.888 475.119 286.325C469.681 273.353 401.791 269.442 319.293 269.442C238.597 269.442 171.431 273.755 163.451 286.325C162.921 287.162 163.451 293.503 163.451 294.372Z" fill="#4385F5"/>
<path d="M475.119 294.372C475.119 308.133 405.363 319.303 319.293 319.303C233.224 319.303 163.451 308.133 163.451 294.372C163.451 292.763 163.291 291.153 163.451 289.544C163.629 288.557 164.013 287.62 164.578 286.792C165.086 285.191 166.138 283.818 167.551 282.91C168.963 282.002 170.649 281.616 172.316 281.818C175.919 281.818 179.518 281.893 183.111 282.044C188.073 282.213 193.023 282.632 197.943 283.299C201.611 283.83 205.263 284.571 208.964 284.796C216.605 285.23 224.183 283.444 231.824 283.186C232.389 283.138 232.958 283.171 233.513 283.283C234.125 283.474 234.713 283.733 235.267 284.055C238.026 285.473 241.156 286.001 244.228 285.568C271.947 287.451 299.586 285.568 327.176 282.349C350.23 279.662 373.268 276.394 396.466 275.799C420.727 275.171 444.974 277.473 468.684 282.655C471.901 283.347 475.779 284.892 475.939 288.176C476.052 290.365 473.671 292.586 475.119 294.372Z" fill="url(#paint5_linear_15:2)"/>
<path d="M319.293 311.255C405.362 311.255 475.135 300.094 475.135 286.325C475.135 272.556 405.362 261.394 319.293 261.394C233.224 261.394 163.451 272.556 163.451 286.325C163.451 300.094 233.224 311.255 319.293 311.255Z" fill="#4385F5"/>
<path d="M432.293 384.341V394.079H397.415C397.415 394.079 399.458 386.611 413.278 384.341L417.798 380.656L432.293 384.341Z" fill="#4385F5"/>
<path d="M432.293 384.341V394.079H397.415C397.415 394.079 399.458 386.611 413.278 384.341L417.798 380.656L432.293 384.341Z" fill="url(#paint6_linear_15:2)"/>
<path d="M433.87 394.079H396.273V396.573H433.87V394.079Z" fill="#4385F5"/>
<path d="M483.887 223.218C484.411 223.056 484.972 223.056 485.496 223.218C486.316 223.572 486.67 224.602 487.507 224.924C485.576 226.678 482.97 227.499 480.766 228.883C478.477 230.482 476.429 232.4 474.685 234.58C472.609 233.438 472.738 230.203 470.92 228.674C472.214 228.332 473.447 227.789 474.572 227.064C475.48 226.649 476.352 226.159 477.178 225.6C479.253 224.409 481.526 223.602 483.887 223.218Z" fill="white"/>
<path d="M466.062 224.441C465.402 225.023 464.808 225.676 464.292 226.388L462.233 229.012C462.13 229.115 462.049 229.238 461.997 229.374C461.944 229.509 461.92 229.655 461.927 229.8C461.989 229.968 462.109 230.108 462.266 230.193C462.423 230.279 462.605 230.305 462.78 230.267C463.121 230.168 463.454 230.044 463.777 229.897C464.54 229.749 465.319 229.706 466.094 229.768C467.048 229.672 467.982 229.427 468.861 229.044C468.916 229.035 468.969 229.015 469.016 228.984C469.063 228.954 469.104 228.914 469.134 228.867C469.166 228.767 469.166 228.66 469.134 228.561C469.088 227.641 469.23 226.72 469.553 225.857C469.778 225.213 470.212 224.473 469.778 223.813C468.99 222.542 466.882 223.781 466.062 224.441Z" fill="white"/>
<path d="M420.759 273.771L380.218 275.59L392.653 290.075L437.281 286.325L420.759 273.771Z" fill="white"/>
<path d="M252.223 273.771C254.492 273.996 292.089 284.876 292.089 284.876L270.338 301.631L227.32 290.075L252.223 273.771Z" fill="white"/>
<path d="M430.073 351.637H424.604V402.174H430.073V351.637Z" fill="#4C506D"/>
<path d="M430.073 351.637H424.604V402.174H430.073V351.637Z" fill="url(#paint7_linear_15:2)"/>
<path d="M398.879 407.872C398.879 411.622 411.621 414.648 427.338 414.648C443.056 414.648 455.782 411.622 455.782 407.872C455.878 406.468 455.878 405.059 455.782 403.655C453.754 400.436 441.624 401.112 427.338 401.112C413.583 401.112 401.598 400.581 398.879 403.655C398.702 405.055 398.702 406.472 398.879 407.872Z" fill="#2F3554"/>
<path d="M427.338 410.431C443.047 410.431 455.781 407.397 455.781 403.655C455.781 399.913 443.047 396.879 427.338 396.879C411.63 396.879 398.895 399.913 398.895 403.655C398.895 407.397 411.63 410.431 427.338 410.431Z" fill="#4C506D"/>
<path d="M401.952 248.406C383.564 244.141 374.329 221.833 356.375 215.991C355.796 215.766 355.153 215.766 354.574 215.991C354.086 216.314 353.718 216.789 353.528 217.343L349.426 226.356L374.056 254.924C375.895 257.212 377.965 259.305 380.234 261.169C385.51 265.193 392.315 266.512 398.847 267.703C402.724 268.428 406.762 269.12 410.543 268.025C415.482 266.593 421.161 259.769 419.536 254.232C417.766 248.164 407.02 249.581 401.952 248.406Z" fill="white"/>
<path d="M374.941 341.079C374.86 344.052 375.408 347.008 376.549 349.754H376.71C379.928 349.673 383.017 349.754 386.17 349.947C391.41 350.369 396.621 351.1 401.775 352.136C404.156 352.587 406.601 353.069 408.918 353.552C411.235 354.035 413.455 354.486 415.723 354.92C420.035 355.773 424.185 356.53 428.207 357.077C433.417 354.872 438.067 351.528 441.817 347.291C442.236 346.825 442.622 346.358 443.008 345.891C443.507 345.266 443.974 344.616 444.407 343.944C445.713 342.056 446.561 339.891 446.885 337.619C446.982 336.696 446.949 335.764 446.788 334.85C445.954 331.717 443.988 329.004 441.27 327.237L440.418 326.626C434.679 322.644 427.801 320.639 420.823 320.912C420.237 320.896 419.65 320.929 419.069 321.009C415.346 321.284 411.656 321.909 408.049 322.876C402.322 324.34 396.595 326.401 390.948 328.203C386.762 329.314 382.758 331.021 379.059 333.273C377.995 333.96 377.068 334.839 376.324 335.864C375.377 337.436 374.897 339.244 374.941 341.079Z" fill="#3E3E54"/>
<path d="M375.439 350.188C376.179 353.971 376.823 357.801 377.402 361.616C378.747 370.524 379.644 379.495 380.089 388.494C380.202 389.333 380.12 390.187 379.847 390.988C378.898 393.354 375.665 393.467 373.123 393.451C370.581 393.435 367.251 394.465 367.315 397.008C367.315 398.987 369.503 400.146 371.369 400.79C376.967 402.709 382.861 403.619 388.776 403.478C389.5 403.511 390.222 403.396 390.9 403.14C394.906 401.369 391.736 396.702 391.318 393.998C390.707 390.055 392.235 385.709 393.184 381.943C395.42 373.172 401.341 365.237 401.083 355.902C400.892 354.716 401.114 353.5 401.711 352.458C402.821 351.09 407.502 353.295 408.982 353.6C411.251 354.067 413.519 354.534 415.787 354.969C427.966 357.351 439.227 360.071 451.76 357.737C452.502 357.653 453.216 357.405 453.851 357.013C454.603 356.353 455.131 355.475 455.363 354.502C457.126 348.998 456.658 343.022 454.06 337.86C451.003 331.824 446.161 329.442 440.482 326.594C433.951 323.278 428.432 320.783 420.887 320.993C420.301 320.977 419.715 321.009 419.134 321.089C415.398 321.394 411.699 322.041 408.081 323.021C398.879 325.403 377.692 328.75 374.169 339.421C373.058 342.785 374.458 345.489 375.134 348.756C375.23 349.174 375.327 349.673 375.439 350.188Z" fill="#3E3E54"/>
<path d="M375.439 350.188C376.179 353.971 376.823 357.801 377.402 361.616C378.747 370.524 379.644 379.495 380.089 388.494C380.202 389.333 380.12 390.187 379.847 390.988C378.898 393.354 375.665 393.467 373.123 393.451C370.581 393.435 367.251 394.465 367.315 397.008C367.315 398.987 369.503 400.146 371.369 400.79C376.967 402.709 382.861 403.619 388.776 403.478C389.5 403.511 390.222 403.396 390.9 403.14C394.906 401.369 391.736 396.702 391.318 393.998C390.707 390.055 392.235 385.709 393.184 381.943C395.42 373.172 401.341 365.237 401.083 355.902C400.892 354.716 401.114 353.5 401.711 352.458C402.821 351.09 407.502 353.295 408.982 353.6C411.251 354.067 413.519 354.534 415.787 354.969C427.966 357.351 439.227 360.071 451.76 357.737C452.502 357.653 453.216 357.405 453.851 357.013C454.603 356.353 455.131 355.475 455.363 354.502C457.126 348.998 456.658 343.022 454.06 337.86C451.003 331.824 446.161 329.442 440.482 326.594C433.951 323.278 428.432 320.783 420.887 320.993C420.301 320.977 419.715 321.009 419.134 321.089C415.398 321.394 411.699 322.041 408.081 323.021C398.879 325.403 377.692 328.75 374.169 339.421C373.058 342.785 374.458 345.489 375.134 348.756C375.23 349.174 375.327 349.673 375.439 350.188Z" fill="url(#paint8_linear_15:2)"/>
<path d="M358.097 351.186C355.107 354.826 352.722 358.924 351.034 363.322C348.83 368.247 336.169 421.037 335.719 420.925L345.291 423.451C356.326 407.653 365.528 390.649 372.721 372.769C374.796 367.635 374.908 367.152 380.491 366.058C385.398 365.108 390.304 364.062 395.163 362.839C404.661 360.617 413.98 357.69 423.043 354.083C428.533 351.946 433.79 349.249 438.729 346.036C439.431 345.476 440.063 344.833 440.611 344.121C440.865 343.803 441.091 343.464 441.286 343.107C442.156 341.712 442.572 340.081 442.477 338.439C442.458 338.002 442.383 337.569 442.252 337.152C441.9 336.209 441.418 335.321 440.82 334.512C439.892 333.259 438.714 332.212 437.361 331.438C433.958 328.978 429.947 327.497 425.762 327.157C422.946 326.996 420.147 327.559 417.364 327.415C414.87 327.27 413.149 325.902 410.929 325.564C409.243 325.366 407.534 325.52 405.91 326.014C402.188 327.268 398.6 328.886 395.195 330.843L375.102 340.886H374.957L370.935 342.898C366.72 345.022 361.893 347.131 358.547 350.543L358.097 351.186Z" fill="#3E3E54"/>
<path d="M321.578 418.398C319.819 418.517 318.116 419.07 316.623 420.007C315.893 420.493 315.342 421.204 315.051 422.031C314.761 422.859 314.748 423.758 315.014 424.594C315.623 425.722 316.599 426.608 317.781 427.105C324.773 430.52 332.543 432.024 340.304 431.466C341.402 431.532 342.492 431.238 343.409 430.629C344.197 429.828 344.71 428.797 344.873 427.684C345.578 425.669 345.728 423.501 345.307 421.407C344.02 417.174 339.322 418.092 335.976 417.915C331.172 417.641 326.353 417.802 321.578 418.398Z" fill="#3E3E54"/>
<path d="M277.417 302.645V308.423H510.689C511.059 306.491 511.397 304.56 511.719 302.645H277.417Z" fill="#4385F5"/>
<path d="M277.417 302.645V308.423H510.689C511.059 306.491 511.397 304.56 511.719 302.645H277.417Z" fill="url(#paint9_linear_15:2)"/>
<path d="M392.09 231.796C391.286 232.794 390.015 233.872 390.481 235.015C390.755 235.643 391.463 235.949 392.01 236.367C393.395 237.608 394.243 239.34 394.375 241.195C394.503 243.036 394.938 244.842 395.662 246.539C396.043 247.374 396.702 248.05 397.527 248.452C398.352 248.854 399.29 248.957 400.182 248.744C401.196 248.341 402.145 247.327 403.175 247.649C404.204 247.971 404.317 248.84 404.783 249.532C405.422 250.335 406.274 250.941 407.242 251.28C408.21 251.619 409.254 251.677 410.253 251.448C412.246 250.953 414.125 250.079 415.787 248.873C416.506 248.51 417.108 247.952 417.525 247.263C417.767 246.587 417.767 245.847 417.525 245.171C416.702 243.14 415.495 241.287 413.97 239.715C411.455 236.504 409.769 232.723 409.063 228.706C408.564 225.922 408.435 222.783 406.473 220.771C403.786 218.035 397.962 218.631 395.211 221.109C392.09 223.668 394.568 228.593 392.09 231.796Z" fill="url(#paint10_linear_15:2)"/>
<path d="M394.391 218.631C394.796 219.318 395.387 219.876 396.096 220.24C397.496 220.916 398.718 221.737 400.086 222.477C401.383 223.197 402.36 224.382 402.821 225.793C403.593 228.368 402.467 231.394 403.528 233.84C403.899 234.323 404.703 233.84 404.992 233.389C405.282 232.939 405.395 232.182 405.877 231.78C406.698 231.184 407.856 231.957 408.323 232.858C408.817 233.927 408.886 235.145 408.515 236.263C408.145 237.381 407.363 238.316 406.328 238.878C406.537 239.682 407.615 239.908 408.435 239.715C409.218 239.408 410.042 239.218 410.881 239.151C412.795 239.328 413.776 242 415.707 242.097C417.01 242.097 418.024 240.938 418.78 239.843L420.807 236.962C421.112 236.421 421.468 235.909 421.869 235.433C422.351 234.967 423.204 234.854 423.574 234.323C423.944 233.792 423.365 232.713 423.799 232.021C424.006 231.776 424.264 231.578 424.555 231.442C425.184 231.027 425.653 230.411 425.887 229.695C426.121 228.979 426.105 228.205 425.842 227.499C425.743 227.334 425.698 227.143 425.713 226.952C425.713 226.694 426.051 226.549 426.277 226.404C426.933 225.871 427.378 225.122 427.534 224.291C427.69 223.46 427.547 222.601 427.129 221.866C426.25 220.42 425.043 219.202 423.606 218.309C420.646 216.12 417.557 213.577 416.688 210.004C416.557 209.031 416.286 208.083 415.884 207.187C415.657 206.757 415.273 206.43 414.812 206.274C414.351 206.118 413.848 206.146 413.406 206.35C413.642 204.481 413.511 202.584 413.02 200.766C412.921 200.323 412.729 199.906 412.457 199.542C412.165 199.24 411.798 199.022 411.394 198.909C410.99 198.795 410.563 198.792 410.157 198.899C409.346 199.124 408.583 199.495 407.904 199.993C407.904 199.092 406.714 198.738 405.813 198.77C404.099 198.832 402.43 199.338 400.97 200.238C399.509 201.138 398.307 202.401 397.48 203.904C397.353 204.172 397.191 204.421 396.997 204.644C396.619 204.95 396.196 205.195 395.742 205.369C395.057 205.764 394.469 206.307 394.021 206.959C393.573 207.61 393.276 208.354 393.152 209.135C392.911 210.703 392.911 212.299 393.152 213.867C393.232 215.081 393.459 216.28 393.828 217.44C393.96 217.861 394.149 218.261 394.391 218.631Z" fill="#DD8049"/>
<path d="M412.506 245.589C410.499 246.7 408.564 247.936 406.714 249.291C406.129 249.712 405.65 250.263 405.314 250.9C405.133 251.231 405.037 251.602 405.037 251.979C405.037 252.356 405.133 252.727 405.314 253.057C405.958 253.975 407.164 253.492 408.098 253.057C412.373 251.117 416.984 250.024 421.676 249.838C421.998 249.859 422.32 249.789 422.605 249.635C422.889 249.481 423.125 249.251 423.284 248.969C423.365 248.645 423.374 248.307 423.31 247.978C423.246 247.65 423.111 247.34 422.914 247.07C420.035 242.226 416.206 243.384 412.506 245.589Z" fill="white"/>
<path d="M404.317 305.88C401.099 299.201 399.491 292.28 397.19 285.311C391.897 289.447 391.366 297.012 386.572 302.065C385.875 302.855 385.061 303.533 384.159 304.077C380.941 305.912 376.34 305.107 372.801 304.866C370.996 304.733 369.292 303.983 367.975 302.741C367.156 301.68 366.704 300.381 366.688 299.04C366.398 294.453 369.004 290.252 371.514 286.421L388.873 259.817C389.479 258.627 390.357 257.598 391.436 256.812C392.515 256.026 393.765 255.506 395.082 255.294C406.057 252.03 417.214 249.418 428.497 247.472C430.186 247.1 431.922 246.992 433.645 247.15C438.471 247.859 441.689 252.413 444.054 256.63C456.763 278.664 465.772 303.691 464.356 329.056C464.327 330.431 464.111 331.796 463.713 333.112C462.87 335.081 461.508 336.784 459.771 338.037C454.108 342.511 446.644 344.185 439.436 344.25C428.658 344.346 414.452 341.031 406.408 333.353C401.872 328.976 406.408 326.336 408.596 322.087C411.315 316.567 406.762 310.821 404.317 305.88Z" fill="white"/>
<path d="M458.018 288.031C457.252 284.656 456.147 281.366 454.72 278.213C448.494 282.768 443.828 291.443 441.512 298.863C439.195 306.282 437.297 313.959 432.567 320.059L427.451 318.289L426.502 321.508C425.762 324.067 427.902 326.674 427.676 329.249C427.425 330.575 426.797 331.799 425.866 332.776C424.936 333.752 423.743 334.439 422.432 334.754C419.419 335.331 416.307 335.109 413.406 334.11C411.507 333.731 409.713 332.946 408.146 331.808C407.368 331.234 406.773 330.446 406.434 329.541C406.094 328.635 406.024 327.651 406.231 326.706C405.616 327.08 405.144 327.649 404.89 328.324C404.636 328.998 404.616 329.737 404.832 330.424C405.285 331.795 406.136 333 407.277 333.885C410.849 337.103 415.321 338.713 419.825 340.451C421.93 341.304 424.078 342.045 426.261 342.672C431.334 343.811 436.522 344.351 441.721 344.282C444.938 344.362 446.756 343.863 448.156 340.757C450.151 336.299 450.296 331.277 450.778 326.417C452.207 313.455 454.627 300.622 458.018 288.031Z" fill="url(#paint11_linear_15:2)"/>
<path d="M440.82 334.641C440.82 336.025 440.82 337.441 440.916 338.874C441.013 340.306 441.11 341.755 441.286 343.236C441.307 343.565 441.35 343.893 441.415 344.217C441.544 345.231 441.705 346.245 441.882 347.291C441.889 347.309 441.893 347.328 441.893 347.348C441.893 347.367 441.889 347.386 441.882 347.404L442.22 349.142C441.721 352.296 442.122 355.526 443.378 358.461C446.242 358.563 449.109 358.52 451.969 358.332C457.533 357.987 463.038 357.004 468.378 355.403C473.846 352.604 478.893 349.05 483.372 344.845C484.611 343.788 485.6 342.468 486.268 340.982C486.749 339.371 486.913 337.682 486.75 336.009C486.576 326.72 487.779 317.456 490.322 308.519C490.885 306.572 491.512 304.641 492.188 302.741C492.96 300.569 493.797 298.444 494.762 296.304C496.966 291.33 499.588 286.486 500.634 281.158C501.181 278.247 501.214 275.262 500.731 272.339C500.7 271.818 500.502 271.322 500.168 270.922C499.91 270.722 499.615 270.575 499.3 270.49C498.986 270.404 498.657 270.382 498.334 270.423C491.625 270.6 485.463 274.447 478.9 275.574C475.505 276.153 471.966 275.992 468.668 276.974C464.037 278.582 460.093 281.721 457.487 285.874C456.011 288.006 454.704 290.25 453.578 292.586C451.856 296.094 450.247 299.442 448.751 302.693C447.882 304.641 447.062 306.572 446.306 308.471C443.843 314.472 442.125 320.753 441.19 327.173V327.286C440.909 329.727 440.786 332.184 440.82 334.641Z" fill="#3E3E54"/>
<path d="M440.82 334.641C440.82 336.025 440.82 337.441 440.916 338.874C441.013 340.306 441.11 341.755 441.286 343.236C441.307 343.565 441.35 343.893 441.415 344.217C441.544 345.231 441.705 346.245 441.882 347.291C441.889 347.309 441.893 347.328 441.893 347.348C441.893 347.367 441.889 347.386 441.882 347.404L442.22 349.142C441.721 352.296 442.122 355.526 443.378 358.461C446.242 358.563 449.109 358.52 451.969 358.332C457.533 357.987 463.038 357.004 468.378 355.403C473.846 352.604 478.893 349.05 483.372 344.845C484.611 343.788 485.6 342.468 486.268 340.982C486.749 339.371 486.913 337.682 486.75 336.009C486.576 326.72 487.779 317.456 490.322 308.519C490.885 306.572 491.512 304.641 492.188 302.741C492.96 300.569 493.797 298.444 494.762 296.304C496.966 291.33 499.588 286.486 500.634 281.158C501.181 278.247 501.214 275.262 500.731 272.339C500.7 271.818 500.502 271.322 500.168 270.922C499.91 270.722 499.615 270.575 499.3 270.49C498.986 270.404 498.657 270.382 498.334 270.423C491.625 270.6 485.463 274.447 478.9 275.574C475.505 276.153 471.966 275.992 468.668 276.974C464.037 278.582 460.093 281.721 457.487 285.874C456.011 288.006 454.704 290.25 453.578 292.586C451.856 296.094 450.247 299.442 448.751 302.693C447.882 304.641 447.062 306.572 446.306 308.471C443.843 314.472 442.125 320.753 441.19 327.173V327.286C440.909 329.727 440.786 332.184 440.82 334.641Z" fill="url(#paint12_linear_15:2)"/>
<path d="M349.216 209.746C345.613 206.688 341.88 203.55 337.376 202.069C337.085 201.918 336.762 201.839 336.435 201.839C336.107 201.839 335.784 201.918 335.494 202.069C335.209 202.319 335.021 202.661 334.963 203.035C334.875 203.842 334.975 204.658 335.254 205.42C335.533 206.182 335.984 206.869 336.571 207.429C337.731 208.551 338.777 209.786 339.693 211.114C338.008 210.81 336.276 210.887 334.625 211.34C334.299 211.404 334.002 211.567 333.772 211.807C333.663 212.021 333.612 212.261 333.626 212.502C333.64 212.742 333.719 212.974 333.853 213.175C334.506 214.15 335.386 214.953 336.417 215.513C337.448 216.074 338.6 216.376 339.773 216.393C340.213 216.408 340.641 216.542 341.012 216.78C341.8 217.44 341.285 218.711 341.43 219.709C341.545 220.189 341.769 220.636 342.084 221.015C342.399 221.395 342.797 221.697 343.248 221.898C344.117 222.349 345.098 222.574 346.015 222.96C347.346 223.826 348.815 224.458 350.359 224.827C353.399 224.956 356.44 220.916 356.472 218.051C356.536 214.929 351.324 211.533 349.216 209.746Z" fill="url(#paint13_linear_15:2)"/>
<path d="M174.777 350.929H169.307V401.466H174.777V350.929Z" fill="#4C506D"/>
<path d="M174.777 350.929H169.307V401.466H174.777V350.929Z" fill="url(#paint14_linear_15:2)"/>
<path d="M200.485 407.164C200.485 410.898 187.744 413.923 172.026 413.923C156.308 413.923 143.583 410.898 143.583 407.164C143.486 405.76 143.486 404.351 143.583 402.947C145.61 399.728 157.74 400.388 172.026 400.388C185.781 400.388 197.767 399.857 200.485 402.947C200.662 404.347 200.662 405.764 200.485 407.164Z" fill="#2F3554"/>
<path d="M172.026 409.723C187.735 409.723 200.469 406.689 200.469 402.947C200.469 399.205 187.735 396.171 172.026 396.171C156.317 396.171 143.583 399.205 143.583 402.947C143.583 406.689 156.317 409.723 172.026 409.723Z" fill="#4C506D"/>
<path d="M224.424 340.355C224.505 343.327 223.956 346.284 222.815 349.03H222.654C219.437 349.03 216.364 349.03 213.211 349.223C207.965 349.646 202.749 350.377 197.589 351.412C195.208 351.862 192.763 352.345 190.463 352.828L183.641 354.212C179.33 355.049 175.179 355.822 171.157 356.353C165.956 354.133 161.308 350.792 157.547 346.567L156.357 345.167C155.874 344.555 155.407 343.912 154.973 343.236C153.656 341.353 152.801 339.186 152.479 336.91C152.375 335.988 152.407 335.055 152.576 334.142C153.41 331.004 155.375 328.286 158.094 326.513L158.947 325.902C164.685 321.92 171.563 319.915 178.542 320.188C179.128 320.172 179.714 320.204 180.295 320.285C184.024 320.56 187.719 321.185 191.331 322.152C197.042 323.616 202.77 325.676 208.417 327.479C212.6 328.602 216.603 330.315 220.305 332.565C221.373 333.241 222.301 334.115 223.04 335.14C223.987 336.711 224.467 338.52 224.424 340.355Z" fill="#3E3E54"/>
<path d="M223.941 349.464C223.185 353.263 222.542 357.077 221.963 360.908C221.174 366.17 220.836 371.53 219.968 376.761C219.099 381.992 219.292 387.174 218.359 392.324C217.941 394.261 217.715 396.234 217.683 398.215C217.931 400.95 218.626 403.625 219.742 406.133C219.598 406.471 219.099 406.439 218.729 406.343C216.644 405.874 214.624 405.155 212.712 404.202C210.779 403.241 209.246 401.628 208.384 399.647C207.242 396.702 208.256 393.596 208.127 390.57C207.785 387.377 207.116 384.227 206.132 381.171C203.896 372.399 197.992 364.464 198.233 355.146C198.44 353.954 198.218 352.728 197.606 351.685C196.496 350.317 191.814 352.538 190.35 352.828L183.529 354.212C171.35 356.578 160.105 359.298 147.573 356.98C146.827 356.88 146.11 356.628 145.465 356.24C144.713 355.58 144.185 354.703 143.953 353.729C142.215 348.223 142.682 342.256 145.256 337.087C148.313 331.068 153.155 328.67 158.834 325.821C165.366 322.602 170.884 320.011 178.429 320.22C179.015 320.204 179.602 320.236 180.183 320.317C183.923 320.62 187.628 321.267 191.251 322.248C200.437 324.63 221.625 327.978 225.148 338.649C226.258 342.028 224.874 344.716 224.199 348C224.134 348.466 224.038 348.965 223.941 349.464Z" fill="url(#paint15_linear_15:2)"/>
<path d="M207.612 398.167C207.718 398.049 207.843 397.951 207.982 397.877C208.561 397.636 209.092 398.295 209.43 398.843C210.854 401.178 212.984 402.999 215.511 404.041C215.817 404.203 216.172 404.249 216.509 404.17C216.879 404.025 217.072 403.607 217.377 403.333C217.602 403.158 217.866 403.04 218.146 402.989C218.426 402.939 218.715 402.957 218.986 403.043C219.536 403.242 220.051 403.524 220.515 403.88C221.961 404.834 223.323 405.911 224.585 407.099C225.228 407.743 225.856 408.709 225.47 409.513C225.212 409.947 224.806 410.273 224.327 410.431C222.562 410.989 220.659 410.921 218.938 410.238C215.72 409.175 212.841 407.196 209.688 405.957C209.474 405.847 209.236 405.792 208.996 405.796C208.815 405.823 208.638 405.866 208.465 405.924C208.178 405.89 207.904 405.791 207.661 405.635C207.419 405.479 207.215 405.27 207.065 405.023C206.26 404.028 205.867 402.762 205.969 401.485C206.071 400.209 206.659 399.021 207.612 398.167Z" fill="#3E3E54"/>
<path d="M239.08 351.38C240.462 354.97 241.124 358.799 241.026 362.646C241.026 372.496 238.291 382.12 235.621 391.616C234.495 395.608 233.546 399.663 232.226 403.671C231.261 406.536 229.974 408.66 231.824 411.638C232.224 412.198 232.595 412.778 232.934 413.376C233.085 413.686 233.144 414.033 233.104 414.375C233.064 414.717 232.927 415.041 232.709 415.308C231.985 415.967 230.843 415.533 229.942 415.179C227.753 414.553 225.604 413.795 223.507 412.909C219.549 410.672 221.078 407.84 221.705 404.411C222.477 400.275 222.992 396.042 223.426 391.858C224.5 383.338 224.283 374.706 222.783 366.251C222.666 365.25 222.27 364.302 221.641 363.515C220.828 362.843 219.828 362.438 218.777 362.356C204.298 359.797 190.141 359.024 176.322 353.424C170.836 351.286 165.585 348.589 160.652 345.376C159.937 344.825 159.299 344.181 158.754 343.461C158.512 343.139 158.287 342.801 158.078 342.463C157.223 341.056 156.809 339.425 156.888 337.779C156.922 337.344 156.997 336.913 157.113 336.492C157.48 335.558 157.967 334.677 158.561 333.869C159.489 332.611 160.666 331.559 162.02 330.778C165.423 328.331 169.426 326.852 173.603 326.497C176.418 326.352 179.217 326.916 182.001 326.755C184.494 326.626 186.216 325.242 188.436 324.904C190.122 324.706 191.831 324.86 193.455 325.354C197.173 326.615 200.762 328.232 204.169 330.183L216.637 336.411C222.413 339.292 229.508 341.24 234.575 345.247C236.581 346.868 238.133 348.981 239.08 351.38Z" fill="url(#paint16_linear_15:2)"/>
<path d="M225.904 330.376C231.185 333.644 235.562 338.185 238.634 343.584C241.706 348.983 243.375 355.066 243.488 361.278C233.244 368.973 221.437 374.324 208.899 376.954C207.471 377.372 205.952 377.372 204.523 376.954C203.344 376.355 202.308 375.509 201.483 374.475C189.996 362.678 169.774 363.853 157.708 352.635C153.139 348.386 150.163 341.063 153.767 335.961C155.234 334.159 157.058 332.679 159.124 331.615C168.503 326.03 179.555 317.677 190.897 319.609C202.239 321.54 216.107 324.469 225.904 330.376Z" fill="#4385F5"/>
<path d="M230.328 370.033C224.585 363.901 223.523 354.856 222.751 346.471C221.114 347.904 219.263 349.072 217.265 349.931L216.283 347.324C216.255 347.107 216.144 346.91 215.972 346.775C215.801 346.639 215.583 346.576 215.366 346.599C215.246 346.618 215.131 346.662 215.029 346.728C206.844 349.479 198.276 350.914 189.642 350.977C186.425 350.977 182.837 350.736 180.134 348.836C177.432 346.937 176.032 342.849 178.011 340.21C171.038 342.11 163.935 343.493 156.759 344.346C156.463 344.336 156.169 344.385 155.893 344.49C155.617 344.595 155.364 344.754 155.15 344.958C154.603 345.666 155.15 346.696 155.617 347.42C161.369 355.481 170.017 361.001 179.748 362.823C182.467 363.322 196.882 368.697 203.349 377.147C203.802 377.684 204.397 378.081 205.066 378.295C205.734 378.508 206.45 378.529 207.129 378.354L230.328 370.033Z" fill="url(#paint17_linear_15:2)"/>
<path d="M143.422 346.905C141.25 346.905 138.725 347.259 137.614 349.11C137.298 349.693 137.132 350.346 137.132 351.009C137.132 351.673 137.298 352.326 137.614 352.908C138.271 354.069 139.272 354.997 140.478 355.564C142.011 356.258 143.637 356.724 145.304 356.948C152.206 358.252 159.108 359.556 166.025 360.779C169.516 361.39 173.04 361.986 176.547 362.533C179.346 362.968 181.92 364.336 184.768 364.883C187.615 365.43 191.396 365.816 193.777 363.788C194.52 363.147 195.082 362.322 195.41 361.397C195.737 360.471 195.817 359.476 195.643 358.509C195.545 357.834 195.242 357.204 194.774 356.707C194.403 356.368 193.979 356.091 193.519 355.886C188.441 353.645 183.092 352.076 177.609 351.219L166.347 348.949C162.935 348.016 159.455 347.354 155.938 346.97C151.772 346.809 147.653 346.793 143.422 346.905Z" fill="#3E3E54"/>
<path d="M143.422 346.905C141.25 346.905 138.725 347.259 137.614 349.11C137.298 349.693 137.132 350.346 137.132 351.009C137.132 351.673 137.298 352.326 137.614 352.908C138.271 354.069 139.272 354.997 140.478 355.564C142.011 356.258 143.637 356.724 145.304 356.948C152.206 358.252 159.108 359.556 166.025 360.779C169.516 361.39 173.04 361.986 176.547 362.533C179.346 362.968 181.92 364.336 184.768 364.883C187.615 365.43 191.396 365.816 193.777 363.788C194.52 363.147 195.082 362.322 195.41 361.397C195.737 360.471 195.817 359.476 195.643 358.509C195.545 357.834 195.242 357.204 194.774 356.707C194.403 356.368 193.979 356.091 193.519 355.886C188.441 353.645 183.092 352.076 177.609 351.219L166.347 348.949C162.935 348.016 159.455 347.354 155.938 346.97C151.772 346.809 147.653 346.793 143.422 346.905Z" fill="url(#paint18_linear_15:2)"/>
<path d="M321.948 301.921V307.715H88.6113C88.2413 305.783 87.9034 303.852 87.5817 301.921H321.948Z" fill="#4385F5"/>
<path d="M204.218 220.256C203.433 219.666 202.566 219.194 201.644 218.856C198.893 217.826 195.048 217.762 192.86 219.983C190.672 222.204 190.768 225.133 190.286 227.933C189.56 231.948 187.871 235.726 185.363 238.942C183.834 240.506 182.626 242.354 181.807 244.382C181.583 245.067 181.583 245.806 181.807 246.491C182.226 247.184 182.835 247.742 183.561 248.1C185.218 249.306 187.091 250.18 189.079 250.675C189.733 250.858 190.423 250.88 191.087 250.737C191.751 250.594 192.371 250.291 192.892 249.854C193.248 249.43 193.708 249.105 194.226 248.91C194.745 248.716 195.305 248.658 195.852 248.744C196.982 249.084 198.149 249.289 199.327 249.355C200.235 249.214 201.083 248.816 201.773 248.209C202.463 247.602 202.965 246.81 203.22 245.927C203.737 244.169 204.024 242.351 204.073 240.519C204.62 235.691 206.47 231.056 206.76 226.195C206.877 225.071 206.705 223.935 206.26 222.895C205.816 221.856 205.112 220.947 204.218 220.256Z" fill="url(#paint19_linear_15:2)"/>
<path d="M176.466 246.185C176.27 246.455 176.134 246.765 176.071 247.093C176.007 247.421 176.015 247.76 176.096 248.084C176.255 248.367 176.49 248.6 176.774 248.756C177.059 248.913 177.381 248.987 177.705 248.969C182.403 249.173 187.015 250.293 191.283 252.269C192.216 252.703 193.423 253.17 194.066 252.269C194.248 251.935 194.343 251.562 194.343 251.182C194.343 250.803 194.248 250.429 194.066 250.096C193.728 249.486 193.248 248.968 192.667 248.583C190.82 247.217 188.885 245.975 186.875 244.865C183.159 242.676 179.33 241.517 176.466 246.185Z" fill="white"/>
<path d="M190.8 321.395C192.972 325.741 197.525 328.38 192.972 332.742C184.928 340.5 170.723 343.735 159.944 343.638C152.737 343.638 145.272 341.916 139.609 337.442C137.873 336.185 136.515 334.476 135.684 332.5C135.269 331.193 135.053 329.832 135.04 328.461C133.625 303.047 142.618 278.036 155.327 256.035C157.74 251.818 160.909 247.279 165.736 246.571C167.458 246.396 169.197 246.505 170.884 246.893C182.168 248.825 193.326 251.432 204.298 254.699C205.757 255.022 207.133 255.647 208.336 256.534C209.199 257.312 209.936 258.219 210.524 259.221L227.867 285.826C230.392 289.673 232.983 293.873 232.693 298.444C232.679 299.79 232.227 301.096 231.406 302.162C230.087 303.399 228.383 304.143 226.58 304.27C220.252 305.287 213.776 304.847 207.644 302.983C211.071 300.359 209.993 294.936 207.741 291.202C206.211 288.718 204.319 286.478 202.126 284.554C200.66 291.738 198.281 298.705 195.048 305.284C192.699 310.129 188.049 315.875 190.8 321.395Z" fill="white"/>
<path d="M207.419 221.045C207.946 219.431 208.002 217.7 207.58 216.056C206.87 213.642 205.633 211.416 203.96 209.537C200.743 205.658 196.544 202.262 191.573 201.49C178.123 199.285 162.486 213.014 157.37 224.36C154.153 231.49 153.187 239.393 151.386 247.022C149.584 254.65 146.672 262.424 140.671 267.43C138.226 269.474 135.25 271.083 133.786 273.868C132 277.296 133.045 281.673 135.394 284.731C137.566 287.516 140.333 288.626 143.133 290.445C145.641 292.264 147.641 294.697 148.94 297.511C152.029 303.482 153.236 310.386 156.984 315.955L162.486 312.913C167.215 310.612 171.558 307.587 175.356 303.948C178.976 300.134 181.421 294.807 180.52 289.624C179.99 286.486 178.3 283.653 177.303 280.627C174.214 271.083 180.971 267.269 186.843 261.603C188.843 259.629 190.344 257.207 191.223 254.537C192.101 251.867 192.331 249.026 191.894 246.249C191.341 244.746 191.308 243.101 191.801 241.578C192.294 240.054 193.285 238.741 194.613 237.848C197.123 234.806 195.144 230.879 198.104 228.062C200.405 225.889 203.912 225.632 206.068 223.234C206.667 222.607 207.128 221.861 207.419 221.045Z" fill="#2F3554"/>
<path d="M141.347 287.323C142.085 283.95 143.163 280.66 144.564 277.505C150.855 281.979 155.456 290.719 157.772 298.074C160.089 305.429 161.987 313.187 166.717 319.287L171.833 317.516L172.782 320.735C173.522 323.278 171.383 325.885 171.608 328.461C171.859 329.786 172.488 331.011 173.418 331.987C174.348 332.964 175.541 333.651 176.852 333.965C179.865 334.542 182.977 334.32 185.878 333.321C187.76 332.954 189.539 332.179 191.09 331.052C191.868 330.473 192.462 329.683 192.801 328.775C193.141 327.867 193.211 326.881 193.005 325.934C193.623 326.308 194.098 326.88 194.352 327.558C194.606 328.235 194.624 328.978 194.404 329.668C193.951 331.039 193.1 332.244 191.959 333.128C188.403 336.347 183.915 337.956 179.41 339.695C177.306 340.542 175.158 341.278 172.975 341.9C167.901 343.029 162.713 343.569 157.515 343.509C154.297 343.509 152.48 343.091 151.08 339.968C149.085 335.51 148.94 330.489 148.458 325.644C147.073 312.707 144.696 299.895 141.347 287.323Z" fill="url(#paint20_linear_15:2)"/>
<path d="M158.561 333.933C158.561 335.317 158.561 336.717 158.464 338.15C158.368 339.582 158.255 341.031 158.078 342.527C158.096 342.853 158.058 343.18 157.965 343.493C157.821 344.507 157.676 345.521 157.483 346.567V346.68C157.386 347.243 157.274 347.822 157.161 348.418C157.642 351.577 157.241 354.808 156.003 357.753C153.138 357.849 150.271 357.801 147.412 357.608C141.847 357.271 136.34 356.288 131.002 354.679C125.537 351.875 120.491 348.321 116.009 344.121C114.766 343.061 113.776 341.735 113.113 340.242C112.631 338.637 112.467 336.953 112.63 335.285C112.808 325.968 111.598 316.676 109.043 307.715C108.496 305.767 107.868 303.836 107.176 301.921C106.404 299.764 105.568 297.623 104.618 295.483C102.414 290.509 99.7922 285.681 98.7304 280.338C98.1657 277.423 98.1167 274.433 98.5856 271.502C98.6166 270.981 98.814 270.485 99.1487 270.085C99.4065 269.885 99.7012 269.739 100.016 269.653C100.331 269.567 100.659 269.545 100.983 269.586C107.691 269.763 113.853 273.626 120.417 274.737C123.811 275.316 127.35 275.171 130.648 276.153C135.312 277.73 139.289 280.868 141.91 285.037C143.385 287.169 144.692 289.413 145.819 291.749C147.541 295.257 149.149 298.605 150.645 301.856C151.514 303.82 152.254 305.735 153.091 307.65C155.571 313.64 157.289 319.918 158.207 326.336V326.449C158.478 328.934 158.596 331.433 158.561 333.933Z" fill="#3E3E54"/>
<path d="M158.561 333.933C158.561 335.317 158.561 336.717 158.464 338.15C158.368 339.582 158.255 341.031 158.078 342.527C158.096 342.853 158.058 343.18 157.965 343.493C157.821 344.507 157.676 345.521 157.483 346.567V346.68C157.386 347.243 157.274 347.822 157.161 348.418C157.642 351.577 157.241 354.808 156.003 357.753C153.138 357.849 150.271 357.801 147.412 357.608C141.847 357.271 136.34 356.288 131.002 354.679C125.537 351.875 120.491 348.321 116.009 344.121C114.766 343.061 113.776 341.735 113.113 340.242C112.631 338.637 112.467 336.953 112.63 335.285C112.808 325.968 111.598 316.676 109.043 307.715C108.496 305.767 107.868 303.836 107.176 301.921C106.404 299.764 105.568 297.623 104.618 295.483C102.414 290.509 99.7922 285.681 98.7304 280.338C98.1657 277.423 98.1167 274.433 98.5856 271.502C98.6166 270.981 98.814 270.485 99.1487 270.085C99.4065 269.885 99.7012 269.739 100.016 269.653C100.331 269.567 100.659 269.545 100.983 269.586C107.691 269.763 113.853 273.626 120.417 274.737C123.811 275.316 127.35 275.171 130.648 276.153C135.312 277.73 139.289 280.868 141.91 285.037C143.385 287.169 144.692 289.413 145.819 291.749C147.541 295.257 149.149 298.605 150.645 301.856C151.514 303.82 152.254 305.735 153.091 307.65C155.571 313.64 157.289 319.918 158.207 326.336V326.449C158.478 328.934 158.596 331.433 158.561 333.933Z" fill="url(#paint21_linear_15:2)"/>
<path d="M220.627 408.016C220.718 407.891 220.84 407.791 220.981 407.727C221.576 407.485 222.107 408.145 222.429 408.692C223.853 411.027 225.983 412.848 228.51 413.891C228.816 414.053 229.17 414.099 229.508 414.02C229.894 413.875 230.087 413.456 230.376 413.183C230.601 413.008 230.865 412.889 231.145 412.839C231.425 412.789 231.714 412.807 231.985 412.893C232.534 413.082 233.046 413.365 233.497 413.73C234.947 414.68 236.309 415.757 237.568 416.949C238.211 417.593 238.838 418.558 238.452 419.363C238.209 419.799 237.805 420.122 237.326 420.265C235.558 420.831 233.648 420.769 231.921 420.087C228.703 419.025 225.84 417.046 222.686 415.806C222.466 415.699 222.224 415.644 221.979 415.645C221.803 415.673 221.631 415.716 221.464 415.774C221.177 415.74 220.902 415.641 220.66 415.485C220.417 415.329 220.214 415.12 220.064 414.873C219.261 413.876 218.871 412.608 218.976 411.332C219.08 410.056 219.672 408.869 220.627 408.016Z" fill="#3E3E54"/>
<path d="M268.263 206.045L258.498 208.153V164.826L268.263 162.734V206.045Z" fill="#4385F5"/>
<path d="M281.278 203.228L271.497 205.336V172.536L281.278 170.443V203.228Z" fill="#4385F5"/>
<path d="M294.309 200.428L284.544 202.536V143.05L294.309 140.942V200.428Z" fill="#4385F5"/>
<path d="M307.324 197.611L297.559 199.719V127.342L307.324 125.233V197.611Z" fill="#4385F5"/>
<path d="M252.062 209.424L314.113 196.951V125.362" stroke="#2F3554" stroke-width="1.0501" stroke-miterlimit="10"/>
<path d="M161.199 151.822C161.631 151.966 162.05 152.143 162.454 152.353L166.347 154.494C166.531 154.607 166.732 154.688 166.942 154.735C167.165 154.783 167.395 154.783 167.618 154.735C173.12 153.592 173.168 146.382 168.696 143.887C167.846 143.501 167.042 143.021 166.299 142.455C165.721 141.819 165.184 141.147 164.69 140.443C164.414 140.105 164.05 139.85 163.639 139.706C163.227 139.561 162.784 139.532 162.357 139.622C161.999 139.795 161.687 140.053 161.449 140.372C161.211 140.691 161.054 141.064 160.99 141.457C160.878 142.242 160.684 143.014 160.411 143.758C160.159 144.214 159.857 144.641 159.51 145.03C159.007 145.665 158.545 146.332 158.126 147.026C157.645 147.673 157.416 148.474 157.483 149.279C157.608 149.727 157.843 150.136 158.166 150.471C158.489 150.805 158.89 151.054 159.333 151.194C159.896 151.436 160.523 151.596 161.199 151.822Z" fill="#FDB9A9"/>
<path d="M196.479 180.921C197.199 182.183 197.674 183.57 197.879 185.009C197.869 186.414 197.536 187.799 196.906 189.055C196.275 190.31 195.364 191.404 194.243 192.252C191.193 194.907 187.342 196.465 183.304 196.678C182.274 196.78 181.234 196.625 180.279 196.227C178.962 195.389 177.961 194.138 177.432 192.67C172.444 182.402 166.991 169.703 166.492 158.131C166.331 154.542 169.468 148.217 173.683 150.599C178.316 153.222 182.612 159.66 185.797 163.828C189.904 169.166 193.482 174.89 196.479 180.921Z" fill="white"/>
</g>
<defs>
<linearGradient id="paint0_linear_15:2" x1="164.352" y1="237.236" x2="185.896" y2="527.84" gradientUnits="userSpaceOnUse">
<stop offset="0.01"/>
<stop offset="0.08" stop-opacity="0.69"/>
<stop offset="0.21" stop-opacity="0.32"/>
<stop offset="1" stop-opacity="0"/>
</linearGradient>
<linearGradient id="paint1_linear_15:2" x1="302866" y1="-15152.5" x2="302691" y2="-212.83" gradientUnits="userSpaceOnUse">
<stop offset="0.01"/>
<stop offset="0.08" stop-opacity="0.69"/>
<stop offset="0.21" stop-opacity="0.32"/>
<stop offset="1" stop-opacity="0"/>
</linearGradient>
<linearGradient id="paint2_linear_15:2" x1="41293" y1="-1380.41" x2="41206" y2="-690.929" gradientUnits="userSpaceOnUse">
<stop offset="0.01"/>
<stop offset="0.08" stop-opacity="0.69"/>
<stop offset="0.21" stop-opacity="0.32"/>
<stop offset="1" stop-opacity="0"/>
</linearGradient>
<linearGradient id="paint3_linear_15:2" x1="3754.31" y1="-2954.94" x2="3189.63" y2="-2725.38" gradientUnits="userSpaceOnUse">
<stop offset="0.01"/>
<stop offset="0.08" stop-opacity="0.69"/>
<stop offset="0.21" stop-opacity="0.32"/>
<stop offset="1" stop-opacity="0"/>
</linearGradient>
<linearGradient id="paint4_linear_15:2" x1="26268.8" y1="-1168.44" x2="25423.3" y2="-604.687" gradientUnits="userSpaceOnUse">
<stop offset="0.01"/>
<stop offset="0.08" stop-opacity="0.69"/>
<stop offset="0.21" stop-opacity="0.32"/>
<stop offset="1" stop-opacity="0"/>
</linearGradient>
<linearGradient id="paint5_linear_15:2" x1="228882" y1="-10700.1" x2="228839" y2="-1229.18" gradientUnits="userSpaceOnUse">
<stop offset="0.01"/>
<stop offset="0.08" stop-opacity="0.69"/>
<stop offset="0.21" stop-opacity="0.32"/>
<stop offset="1" stop-opacity="0"/>
</linearGradient>
<linearGradient id="paint6_linear_15:2" x1="26788.4" y1="-1073.59" x2="25944.1" y2="-509.232" gradientUnits="userSpaceOnUse">
<stop offset="0.01"/>
<stop offset="0.08" stop-opacity="0.69"/>
<stop offset="0.21" stop-opacity="0.32"/>
<stop offset="1" stop-opacity="0"/>
</linearGradient>
<linearGradient id="paint7_linear_15:2" x1="429.719" y1="401.418" x2="426.097" y2="364.255" gradientUnits="userSpaceOnUse">
<stop stop-opacity="0"/>
<stop offset="0.99"/>
</linearGradient>
<linearGradient id="paint8_linear_15:2" x1="22514" y1="-12308.4" x2="24843" y2="-4919.94" gradientUnits="userSpaceOnUse">
<stop stop-opacity="0"/>
<stop offset="0.99"/>
</linearGradient>
<linearGradient id="paint9_linear_15:2" x1="190856" y1="-878.587" x2="190843" y2="-252.195" gradientUnits="userSpaceOnUse">
<stop offset="0.01"/>
<stop offset="0.08" stop-opacity="0.69"/>
<stop offset="0.21" stop-opacity="0.32"/>
<stop offset="1" stop-opacity="0"/>
</linearGradient>
<linearGradient id="paint10_linear_15:2" x1="390.385" y1="235.273" x2="417.702" y2="235.273" gradientUnits="userSpaceOnUse">
<stop stop-color="#E5C5D5"/>
<stop offset="0.42" stop-color="#EAD4D1"/>
<stop offset="1" stop-color="#F0E9CB"/>
</linearGradient>
<linearGradient id="paint11_linear_15:2" x1="44222.7" y1="-5397.09" x2="38668.1" y2="-9880.57" gradientUnits="userSpaceOnUse">
<stop offset="0.01"/>
<stop offset="0.08" stop-opacity="0.69"/>
<stop offset="0.21" stop-opacity="0.32"/>
<stop offset="1" stop-opacity="0"/>
</linearGradient>
<linearGradient id="paint12_linear_15:2" x1="49603.6" y1="-11357.1" x2="47342.2" y2="-11357.1" gradientUnits="userSpaceOnUse">
<stop stop-opacity="0"/>
<stop offset="0.99"/>
</linearGradient>
<linearGradient id="paint13_linear_15:2" x1="5327.64" y1="-4180.18" x2="5653.46" y2="-4180.18" gradientUnits="userSpaceOnUse">
<stop stop-color="#E5C5D5"/>
<stop offset="0.42" stop-color="#EAD4D1"/>
<stop offset="1" stop-color="#F0E9CB"/>
</linearGradient>
<linearGradient id="paint14_linear_15:2" x1="3531.06" y1="-3748.83" x2="4116.82" y2="-4399.45" gradientUnits="userSpaceOnUse">
<stop stop-opacity="0"/>
<stop offset="0.99"/>
</linearGradient>
<linearGradient id="paint15_linear_15:2" x1="76366.2" y1="-12997" x2="73668.5" y2="-5400.59" gradientUnits="userSpaceOnUse">
<stop stop-color="#E5C5D5"/>
<stop offset="0.42" stop-color="#EAD4D1"/>
<stop offset="1" stop-color="#F0E9CB"/>
</linearGradient>
<linearGradient id="paint16_linear_15:2" x1="11493.8" y1="-9959.11" x2="15338.6" y2="-5920.58" gradientUnits="userSpaceOnUse">
<stop stop-color="#E5C5D5"/>
<stop offset="0.42" stop-color="#EAD4D1"/>
<stop offset="1" stop-color="#F0E9CB"/>
</linearGradient>
<linearGradient id="paint17_linear_15:2" x1="8224.94" y1="-3248.6" x2="10432.4" y2="-6128.61" gradientUnits="userSpaceOnUse">
<stop offset="0.01"/>
<stop offset="0.08" stop-opacity="0.69"/>
<stop offset="0.21" stop-opacity="0.32"/>
<stop offset="1" stop-opacity="0"/>
</linearGradient>
<linearGradient id="paint18_linear_15:2" x1="7549.58" y1="-2016.17" x2="7279.47" y2="-1231.34" gradientUnits="userSpaceOnUse">
<stop stop-opacity="0"/>
<stop offset="0.99"/>
</linearGradient>
<linearGradient id="paint19_linear_15:2" x1="54887.4" y1="-5384.47" x2="54494.7" y2="-5384.47" gradientUnits="userSpaceOnUse">
<stop stop-color="#E5C5D5"/>
<stop offset="0.42" stop-color="#EAD4D1"/>
<stop offset="1" stop-color="#F0E9CB"/>
</linearGradient>
<linearGradient id="paint20_linear_15:2" x1="17765.7" y1="-5422.33" x2="23313.6" y2="-9894" gradientUnits="userSpaceOnUse">
<stop offset="0.01"/>
<stop offset="0.08" stop-opacity="0.69"/>
<stop offset="0.21" stop-opacity="0.32"/>
<stop offset="1" stop-opacity="0"/>
</linearGradient>
<linearGradient id="paint21_linear_15:2" x1="20619.1" y1="-11413" x2="22879.7" y2="-11413" gradientUnits="userSpaceOnUse">
<stop stop-opacity="0"/>
<stop offset="0.99"/>
</linearGradient>
<clipPath id="clip0_15:2">
<rect width="622" height="469" fill="white"/>
</clipPath>
</defs>
</svg>
