<svg width="20" height="24" viewBox="0 0 20 24" fill="none" xmlns="http://www.w3.org/2000/svg">
<rect width="20" height="24" rx="4" fill="#FFB73D"/>
<path d="M7.14453 16V7.46875H10.209C11.3066 7.46875 12.1406 7.66992 12.7109 8.07227C13.2852 8.47461 13.5723 9.05859 13.5723 9.82422C13.5723 10.2656 13.4707 10.6426 13.2676 10.9551C13.0645 11.2676 12.7656 11.498 12.3711 11.6465C12.8164 11.7637 13.1582 11.9824 13.3965 12.3027C13.6348 12.623 13.7539 13.0137 13.7539 13.4746C13.7539 14.3105 13.4883 14.9395 12.957 15.3613C12.4297 15.7793 11.6465 15.9922 10.6074 16H7.14453ZM9.20117 12.373V14.418H10.5488C10.9199 14.418 11.2051 14.334 11.4043 14.166C11.6035 13.9941 11.7031 13.7539 11.7031 13.4453C11.7031 12.7344 11.3496 12.377 10.6426 12.373H9.20117ZM9.20117 11.0254H10.2734C10.7227 11.0215 11.043 10.9395 11.2344 10.7793C11.4258 10.6191 11.5215 10.3828 11.5215 10.0703C11.5215 9.71094 11.418 9.45312 11.2109 9.29688C11.0039 9.13672 10.6699 9.05664 10.209 9.05664H9.20117V11.0254Z" fill="white"/>
</svg>
