<svg width="20" height="24" viewBox="0 0 20 24" fill="none" xmlns="http://www.w3.org/2000/svg">
<rect width="20" height="24" rx="4" fill="#FD6D75"/>
<path d="M13.5469 13.1113C13.5195 13.7051 13.3594 14.2305 13.0664 14.6875C12.7734 15.1406 12.3613 15.4922 11.8301 15.7422C11.3027 15.9922 10.6992 16.1172 10.0195 16.1172C8.89844 16.1172 8.01562 15.752 7.37109 15.0215C6.72656 14.291 6.4043 13.2598 6.4043 11.9277V11.5059C6.4043 10.6699 6.54883 9.93945 6.83789 9.31445C7.13086 8.68555 7.55078 8.20117 8.09766 7.86133C8.64453 7.51758 9.27734 7.3457 9.99609 7.3457C11.0312 7.3457 11.8633 7.61914 12.4922 8.16602C13.1211 8.70898 13.4785 9.45898 13.5645 10.416H11.5137C11.498 9.89648 11.3672 9.52344 11.1211 9.29688C10.875 9.07031 10.5 8.95703 9.99609 8.95703C9.48438 8.95703 9.10938 9.14844 8.87109 9.53125C8.63281 9.91406 8.50781 10.5254 8.49609 11.3652V11.9688C8.49609 12.8789 8.60938 13.5293 8.83594 13.9199C9.06641 14.3105 9.46094 14.5059 10.0195 14.5059C10.4922 14.5059 10.8535 14.3945 11.1035 14.1719C11.3535 13.9492 11.4863 13.5957 11.502 13.1113H13.5469Z" fill="white"/>
</svg>
