<svg width="111" height="22" viewBox="0 0 111 22" fill="none" xmlns="http://www.w3.org/2000/svg">
<path d="M0.888672 15.3672C1.01172 19.0859 4.14258 21.3281 8.8457 21.3281C13.7812 21.3281 16.8027 18.8945 16.8027 15.0391C16.8027 12.0449 14.9844 10.3633 10.8145 9.5293L8.72266 9.10547C6.39844 8.64062 5.44141 7.88867 5.44141 6.67188C5.44141 5.22266 6.80859 4.26562 8.8457 4.26562C10.9238 4.26562 12.3867 5.27734 12.5234 6.95898H16.4199C16.3516 3.33594 13.4531 0.929688 8.8457 0.929688C4.45703 0.929688 1.3125 3.32227 1.3125 6.93164C1.3125 9.87109 3.24023 11.7578 7.17773 12.5371L9.25586 12.9473C11.7305 13.4531 12.6602 14.1914 12.6602 15.4902C12.6602 16.9395 11.1562 18.0059 8.95508 18.0059C6.71289 18.0059 5.04492 17.0215 4.78516 15.3672H0.888672ZM23.3379 21.2324C25.1699 21.2324 26.9883 20.3164 27.8086 18.7578H27.8906V21H31.7461V10.9238C31.7461 7.9707 29.2988 6.0293 25.5391 6.0293C21.6562 6.0293 19.2363 7.98438 19.0859 10.8281H22.7363C22.9277 9.74805 23.8711 9.00977 25.3613 9.00977C26.8652 9.00977 27.8223 9.80273 27.8223 11.1699V12.1406L24.1309 12.3594C20.4805 12.5781 18.4297 14.123 18.4297 16.7891C18.4297 19.4277 20.5488 21.2324 23.3379 21.2324ZM24.6504 18.3477C23.2969 18.3477 22.3945 17.6641 22.3945 16.5703C22.3945 15.5312 23.2422 14.8613 24.7324 14.752L27.8223 14.5605V15.627C27.8223 17.2129 26.3867 18.3477 24.6504 18.3477ZM34.4258 21H38.418V1.27148H34.4258V21ZM50.8184 16.5156C50.4492 17.6367 49.3281 18.3613 47.8652 18.3613C45.8281 18.3613 44.502 16.9258 44.502 14.834V14.5879H54.6055V13.3711C54.6055 8.91406 51.9121 6.0293 47.6465 6.0293C43.3125 6.0293 40.5781 9.06445 40.5781 13.7402C40.5781 18.4297 43.2852 21.3145 47.7969 21.3145C51.4199 21.3145 54.0449 19.3867 54.4824 16.5156H50.8184ZM47.6875 8.98242C49.4648 8.98242 50.6816 10.2676 50.7637 12.1406H44.543C44.6797 10.3086 45.9375 8.98242 47.6875 8.98242ZM56.6699 21H60.6621V12.8105C60.6621 10.7461 61.8105 9.54297 63.7793 9.54297C64.3535 9.54297 64.9004 9.63867 65.2285 9.77539V6.26172C64.9551 6.17969 64.5586 6.11133 64.0938 6.11133C62.3711 6.11133 61.127 7.12305 60.6074 8.98242H60.5254V6.34375H56.6699V21ZM73.1035 21.3145C77.5332 21.3145 80.3633 18.4844 80.3633 13.6582C80.3633 8.90039 77.4922 6.0293 73.1035 6.0293C68.7148 6.0293 65.8438 8.91406 65.8438 13.6582C65.8438 18.4707 68.6738 21.3145 73.1035 21.3145ZM73.1035 18.2656C71.1348 18.2656 69.8906 16.6113 69.8906 13.6719C69.8906 10.7598 71.1621 9.07812 73.1035 9.07812C75.0449 9.07812 76.3027 10.7598 76.3027 13.6719C76.3027 16.6113 75.0586 18.2656 73.1035 18.2656Z" fill="#1B3452"/>
<path d="M85.0254 21.1641C86.2422 21.1641 87.2266 20.1797 87.2266 18.9629C87.2266 17.7324 86.2422 16.7617 85.0254 16.7617C83.7949 16.7617 82.8242 17.7324 82.8242 18.9629C82.8242 20.1797 83.7949 21.1641 85.0254 21.1641ZM92.2715 4.36133C93.4336 4.36133 94.3496 3.43164 94.3496 2.31055C94.3496 1.17578 93.4336 0.259766 92.2715 0.259766C91.1094 0.259766 90.1934 1.17578 90.1934 2.31055C90.1934 3.43164 91.1094 4.36133 92.2715 4.36133ZM90.2891 21H94.2812V6.34375H90.2891V21ZM103.674 21.3145C108.104 21.3145 110.934 18.4844 110.934 13.6582C110.934 8.90039 108.062 6.0293 103.674 6.0293C99.2852 6.0293 96.4141 8.91406 96.4141 13.6582C96.4141 18.4707 99.2441 21.3145 103.674 21.3145ZM103.674 18.2656C101.705 18.2656 100.461 16.6113 100.461 13.6719C100.461 10.7598 101.732 9.07812 103.674 9.07812C105.615 9.07812 106.873 10.7598 106.873 13.6719C106.873 16.6113 105.629 18.2656 103.674 18.2656Z" fill="#4385F4"/>
</svg>
