<svg width="50" height="70" viewBox="0 0 50 70" fill="none" xmlns="http://www.w3.org/2000/svg">
<rect width="50" height="70" fill="white"/>
<path d="M30.1152 40.4082C30.1152 39.2832 29.7168 38.416 28.9199 37.8066C28.1348 37.1973 26.7109 36.582 24.6484 35.9609C22.5859 35.3398 20.9453 34.6484 19.7266 33.8867C17.3945 32.4219 16.2285 30.5117 16.2285 28.1562C16.2285 26.0938 17.0664 24.3945 18.7422 23.0586C20.4297 21.7227 22.6152 21.0547 25.2988 21.0547C27.0801 21.0547 28.668 21.3828 30.0625 22.0391C31.457 22.6953 32.5527 23.6328 33.3496 24.8516C34.1465 26.0586 34.5449 27.4004 34.5449 28.877H30.1152C30.1152 27.541 29.6934 26.498 28.8496 25.748C28.0176 24.9863 26.8223 24.6055 25.2637 24.6055C23.8105 24.6055 22.6797 24.916 21.8711 25.5371C21.0742 26.1582 20.6758 27.0254 20.6758 28.1387C20.6758 29.0762 21.1094 29.8613 21.9766 30.4941C22.8438 31.1152 24.2734 31.7246 26.2656 32.3223C28.2578 32.9082 29.8574 33.582 31.0645 34.3438C32.2715 35.0938 33.1562 35.9609 33.7188 36.9453C34.2812 37.918 34.5625 39.0605 34.5625 40.373C34.5625 42.5059 33.7422 44.2051 32.1016 45.4707C30.4727 46.7246 28.2578 47.3516 25.457 47.3516C23.6055 47.3516 21.9004 47.0117 20.3418 46.332C18.7949 45.6406 17.5879 44.6914 16.7207 43.4844C15.8652 42.2773 15.4375 40.8711 15.4375 39.2656H19.8848C19.8848 40.7188 20.3652 41.8438 21.3262 42.6406C22.2871 43.4375 23.6641 43.8359 25.457 43.8359C27.0039 43.8359 28.1641 43.5254 28.9375 42.9043C29.7227 42.2715 30.1152 41.4395 30.1152 40.4082Z" fill="#1B3452"/>
</svg>
